<?xml version="1.0" standalone="no"?>
<!DOCTYPE svg PUBLIC "-//W3C//DTD SVG 20010904//EN"
 "http://www.w3.org/TR/2001/REC-SVG-20010904/DTD/svg10.dtd">
<svg version="1.0" xmlns="http://www.w3.org/2000/svg"
 width="488.000000pt" height="600.000000pt" viewBox="0 0 488.000000 600.000000"
 preserveAspectRatio="xMidYMid meet">

<g transform="translate(0.000000,600.000000) scale(0.100000,-0.100000)"
fill="#000000" stroke="none">
<path d="M3790 5950 c-481 -15 -1131 -35 -1445 -44 -794 -22 -847 -25 -873
-45 -17 -13 -121 -350 -526 -1711 -277 -932 -595 -1999 -705 -2370 -111 -371
-201 -687 -201 -701 0 -14 6 -33 12 -42 12 -15 484 -147 2088 -582 129 -35
300 -82 380 -104 815 -223 1221 -331 1249 -331 26 0 42 9 70 38 33 34 38 47
53 138 40 244 637 3721 893 5210 47 271 85 499 85 508 0 10 -11 28 -25 41 -29
30 87 31 -1055 -5z m-1230 -189 c0 -5 11 -12 25 -15 14 -4 25 -12 25 -20 0
-17 -100 -50 -113 -37 -15 15 -3 46 21 49 12 2 22 10 22 18 0 8 5 14 10 14 6
0 10 -4 10 -9z m-649 -14 c-6 -8 -8 -17 -4 -20 3 -4 2 -7 -4 -7 -6 0 -14 -11
-17 -25 -4 -14 -11 -25 -16 -25 -6 0 -8 11 -4 28 10 42 23 62 41 62 12 0 13
-3 4 -13z m-367 -9 c-35 -60 -56 -89 -61 -85 -7 8 47 97 59 97 5 0 6 -6 2 -12z
m37 -18 c12 0 12 -37 -1 -45 -6 -3 -10 4 -10 17 l-1 23 -14 -25 c-18 -31 -20
-5 -3 37 9 22 12 24 15 11 3 -10 9 -18 14 -18z m103 -7 c-4 -36 -4 -37 7 -10
6 16 18 27 29 27 41 0 35 -41 -9 -63 -37 -19 -56 1 -47 49 9 46 26 44 20 -3z
m114 -3 c-6 -22 -15 -40 -20 -40 -6 0 -7 7 -4 16 3 9 9 27 12 40 3 13 10 24
14 24 4 0 3 -18 -2 -40z m239 16 c-12 -10 -15 -16 -7 -21 6 -4 17 1 24 10 14
20 84 27 105 11 10 -8 15 -8 18 2 5 13 69 17 77 4 7 -12 -5 -52 -16 -52 -5 0
-6 9 -3 20 3 11 2 20 -3 20 -5 0 -13 -10 -17 -22 l-8 -23 -4 25 -5 24 -14 -24
c-12 -22 -13 -23 -14 -5 -1 18 -2 18 -11 3 -11 -19 -68 -22 -131 -6 -43 10
-48 20 -15 36 31 15 45 14 24 -2z m315 -11 c-2 -11 -8 -24 -14 -30 -7 -7 -9
-3 -5 13 3 12 2 22 -3 22 -4 0 -11 -10 -15 -22 l-7 -23 -8 25 -8 25 -7 -22
c-4 -13 -11 -23 -16 -23 -11 0 -11 3 1 35 9 23 15 26 47 23 32 -2 37 -6 35
-23z m68 14 c0 -23 -22 -49 -40 -49 -27 0 -25 30 2 38 21 5 21 6 2 13 -16 6
-15 8 9 8 15 1 27 -4 27 -10z m60 -13 c0 -14 -4 -28 -10 -31 -6 -4 -10 6 -10
22 l-1 28 -15 -28 c-18 -34 -28 -30 -18 7 9 36 54 38 54 2z m-830 -7 c0 -5 -7
-9 -15 -9 -8 0 -15 -5 -15 -11 0 -5 5 -7 10 -4 6 3 10 1 10 -4 0 -6 -9 -11
-20 -11 -25 0 -27 35 -3 49 19 10 33 6 33 -10z m210 14 c-1 -23 -13 -52 -21
-48 -4 3 -6 13 -3 23 4 11 -2 8 -15 -8 -21 -26 -25 -21 -15 18 4 15 14 22 30
22 13 0 24 -3 24 -7z m100 -13 c0 -21 -34 -45 -50 -35 -24 15 -1 55 32 55 11
0 18 -7 18 -20z m2454 -89 c25 -25 3 -29 -28 -6 -64 48 -196 -24 -196 -107 0
-57 67 -96 135 -77 56 16 49 26 -17 25 -54 -1 -62 2 -81 26 -18 24 -19 30 -7
59 25 58 111 89 156 54 19 -14 18 -15 -6 -34 -16 -13 -33 -18 -49 -14 -28 7
-44 -13 -29 -40 8 -16 7 -18 -9 -15 -10 2 -19 13 -21 25 -4 26 32 53 71 53 16
0 26 4 22 10 -10 17 -61 11 -87 -10 -37 -29 -41 -58 -13 -86 28 -28 34 -29 80
-10 31 13 35 13 51 -5 17 -18 17 -20 -2 -34 -43 -32 -149 -32 -185 1 -41 37
-34 117 16 164 54 51 158 62 199 21z m-663 -91 c-4 -22 -13 -36 -25 -38 -24
-5 -38 10 -30 31 9 25 23 21 17 -4 -4 -16 -2 -20 8 -17 8 3 13 13 12 23 -1 14
17 47 24 41 1 0 -2 -17 -6 -36z m-464 -5 c-1 -19 -5 -35 -9 -35 -9 0 -10 17
-2 48 9 32 13 27 11 -13z m148 -4 c-6 -30 -36 -43 -49 -22 -10 16 5 41 25 41
10 0 19 5 19 12 0 6 3 9 6 5 3 -3 3 -19 -1 -36z m-1974 -15 c-14 -36 -22 -33
-9 5 6 16 12 28 14 26 3 -2 0 -16 -5 -31z m619 24 c0 -5 -5 -10 -11 -10 -5 0
-7 5 -4 10 3 6 8 10 11 10 2 0 4 -4 4 -10z m320 -5 c0 -9 -10 -20 -22 -25 -18
-7 -19 -9 -5 -9 9 -1 17 -5 17 -10 0 -14 -19 -24 -35 -17 -18 7 2 63 25 70 8
2 16 4 18 5 1 0 2 -6 2 -14z m370 6 c0 -6 -4 -13 -10 -16 -5 -3 -10 1 -10 9 0
9 5 16 10 16 6 0 10 -4 10 -9z m30 -16 c0 -21 -33 -36 -51 -23 -12 8 -11 9 2
5 21 -7 39 11 32 31 -4 10 -2 13 5 8 7 -4 12 -14 12 -21z m141 12 c-1 -4 -1
-14 -1 -22 0 -8 -5 -15 -11 -15 -5 0 -7 6 -3 13 5 8 2 8 -9 -2 -13 -10 -17
-10 -17 -1 0 6 9 14 21 17 16 5 18 8 7 15 -11 8 -11 9 0 6 8 -2 13 -7 13 -11z
m37 -7 c-14 -22 -24 -19 -15 5 4 8 11 15 17 15 6 0 6 -7 -2 -20z m64 14 c12
-11 -5 -44 -23 -44 -26 0 -24 21 3 28 21 5 21 6 2 13 -14 6 -15 8 -3 8 9 1 18
-2 21 -5z m41 -32 c-10 -18 -25 -34 -33 -37 -12 -5 -13 -4 -2 6 6 7 12 24 12
39 0 19 2 22 10 10 8 -12 10 -12 16 3 3 10 8 16 11 14 2 -2 -4 -18 -14 -35z
m47 -2 c5 0 12 9 15 21 9 27 16 20 8 -9 -3 -13 -13 -22 -24 -22 -14 0 -19 7
-18 28 2 23 2 24 6 5 2 -13 8 -23 13 -23z m66 21 c-13 -15 -14 -20 -4 -24 7
-3 3 -6 -10 -6 -23 -1 -23 -1 -5 24 10 13 22 25 27 25 5 0 1 -9 -8 -19z m154
8 c0 -6 -10 -13 -22 -17 -21 -5 -21 -6 -2 -13 18 -7 17 -8 -3 -8 -22 -1 -32
26 -16 42 10 11 43 8 43 -4z m112 -16 c-3 -16 -7 -22 -10 -15 -4 13 4 42 11
42 2 0 2 -12 -1 -27z m48 17 c-13 -9 -13 -10 1 -10 8 0 20 5 26 11 6 6 19 9
29 6 16 -4 15 -5 -3 -6 -14 -1 -23 -7 -23 -17 0 -10 6 -14 15 -10 8 3 15 1 15
-4 0 -14 -34 -12 -48 2 -9 9 -12 9 -12 0 0 -7 -8 -12 -17 -12 -14 0 -15 2 -4
9 9 6 10 11 2 15 -19 12 -12 26 12 26 18 0 19 -2 7 -10z m93 -11 c-4 -16 -2
-20 8 -17 8 3 13 13 13 22 -1 9 3 16 8 16 5 0 8 -10 6 -22 -4 -30 -48 -39 -48
-10 0 16 8 32 16 32 1 0 0 -10 -3 -21z m77 17 c0 -3 -4 -8 -10 -11 -5 -3 -10
-1 -10 4 0 6 5 11 10 11 6 0 10 -2 10 -4z m-1963 -43 c-3 -10 -5 -4 -5 12 0
17 2 24 5 18 2 -7 2 -21 0 -30z m61 19 c2 -7 -6 -12 -20 -13 -22 0 -22 -1 -3
-9 16 -7 17 -9 3 -9 -23 -1 -32 17 -17 35 13 16 31 14 37 -4z m25 3 c-3 -9 -8
-14 -10 -11 -3 3 -2 9 2 15 9 16 15 13 8 -4z m19 -27 c-6 -6 -7 0 -4 19 5 21
7 23 10 9 2 -10 0 -22 -6 -28z m138 38 c0 -2 -9 -6 -20 -9 -11 -3 -18 -1 -14
4 5 9 34 13 34 5z m18 -21 c-6 -14 -13 -24 -14 -22 -6 6 9 47 17 47 5 0 3 -11
-3 -25z m67 14 c4 -6 -3 -13 -15 -16 -16 -4 -18 -8 -8 -14 10 -7 9 -9 -4 -9
-18 0 -25 30 -11 43 10 10 31 8 38 -4z m79 5 c-7 -3 -10 -14 -7 -24 4 -15 0
-20 -13 -20 -15 0 -16 2 -5 9 9 6 10 11 2 15 -15 10 -4 26 17 25 9 0 12 -3 6
-5z m62 -13 c-13 -15 -14 -20 -4 -24 7 -3 2 -6 -11 -6 -23 -1 -23 0 -8 17 10
10 14 22 10 25 -3 4 2 7 12 7 17 0 17 -1 1 -19z m73 3 c15 17 61 22 61 6 0 -5
-7 -7 -15 -4 -18 7 -21 -22 -2 -30 6 -3 3 -4 -8 -3 -14 2 -19 9 -17 22 2 18 1
18 -16 -3 -20 -25 -32 -20 -31 12 0 19 1 19 8 3 6 -17 8 -17 20 -3z m191 6 c0
-5 -7 -7 -15 -4 -10 4 -15 0 -15 -11 0 -9 5 -13 10 -10 6 3 10 1 10 -4 0 -13
-27 -15 -34 -2 -10 16 5 41 25 41 10 0 19 -4 19 -10z m95 -12 c-3 -12 -11 -29
-20 -37 -13 -14 -15 -13 -15 7 0 15 4 21 11 16 8 -4 9 0 4 15 -4 15 -2 21 9
21 10 0 13 -7 11 -22z m28 2 c-3 -11 -7 -20 -9 -20 -2 0 -4 9 -4 20 0 11 4 20
9 20 5 0 7 -9 4 -20z m30 0 c-3 -11 -7 -20 -9 -20 -2 0 -4 9 -4 20 0 11 4 20
9 20 5 0 7 -9 4 -20z m36 13 c0 -5 -4 -17 -9 -28 -8 -18 -9 -17 -9 8 -1 15 4
27 9 27 6 0 10 -3 9 -7z m53 -45 l-22 -22 0 22 c0 15 4 21 11 16 8 -4 9 1 4
17 -7 23 -6 23 11 6 18 -16 18 -18 -4 -39z m125 30 c-3 -8 -6 -5 -6 6 -1 11 2
17 5 13 3 -3 4 -12 1 -19z m-1303 -12 c-7 -17 -34 -23 -34 -6 0 9 32 31 38 26
1 -2 0 -11 -4 -20z m26 3 c-7 -11 -14 -19 -16 -16 -7 7 7 37 17 37 6 0 5 -9
-1 -21z m21 -6 c-12 -20 -14 -14 -5 12 4 9 9 14 11 11 3 -2 0 -13 -6 -23z
m906 -5 c-3 -7 -5 -2 -5 12 0 14 2 19 5 13 2 -7 2 -19 0 -25z m190 10 c-3 -8
-6 -5 -6 6 -1 11 2 17 5 13 3 -3 4 -12 1 -19z m-1017 -3 c0 -9 -9 -15 -21 -15
-18 0 -19 2 -9 15 7 8 16 15 21 15 5 0 9 -7 9 -15z m250 5 c8 13 10 12 10 -2
0 -11 -8 -18 -20 -18 -12 0 -20 7 -20 18 0 14 2 15 10 2 9 -13 11 -13 20 0z
m51 -18 c-7 -2 -18 1 -23 6 -8 8 -4 9 13 5 13 -4 18 -8 10 -11z m134 8 c3 -5
1 -10 -4 -10 -6 0 -11 5 -11 10 0 6 2 10 4 10 3 0 8 -4 11 -10z m1366 -105
c15 10 10 -12 -6 -25 -13 -11 -15 -7 -14 31 2 30 3 35 6 16 2 -15 9 -25 14
-22z m54 1 c-10 -20 -21 -33 -26 -30 -5 3 -7 9 -4 14 3 5 1 11 -5 15 -13 8
-13 35 -1 35 5 0 11 -10 13 -22 4 -22 5 -22 18 5 7 15 15 25 17 23 3 -2 -3
-20 -12 -40z m90 8 c-5 -28 -3 -35 7 -31 7 2 12 12 12 21 -1 9 3 16 8 16 5 0
8 -10 6 -22 -2 -15 -11 -24 -25 -26 -24 -4 -29 11 -17 56 10 36 17 25 9 -14z
m-1694 -17 c-11 -29 -35 -36 -44 -13 -6 16 11 36 30 36 7 0 13 6 14 13 0 7 2
8 5 1 3 -6 0 -23 -5 -37z m418 11 c-5 -18 -9 -34 -9 -35 0 -2 -9 -3 -20 -3
-14 0 -20 7 -20 21 0 12 8 23 20 26 11 3 20 9 20 14 0 5 4 9 9 9 6 0 6 -12 0
-32z m-95 8 c10 4 12 -2 8 -21 -3 -18 -7 -23 -12 -15 -4 7 -12 10 -17 7 -6 -4
-8 5 -5 21 3 15 7 22 9 15 2 -7 10 -10 17 -7z m601 4 c3 -5 -1 -10 -10 -10 -9
0 -13 5 -10 10 3 6 8 10 10 10 2 0 7 -4 10 -10z m-1394 -7 c-10 -4 -11 -7 -1
-13 14 -9 5 -30 -13 -30 -8 0 -8 3 2 9 9 6 10 11 2 15 -13 9 -5 26 12 25 8 0
7 -3 -2 -6z m108 -15 c0 -21 -1 -22 -8 -3 -8 19 -8 19 -19 0 -12 -22 -16 -16
-6 9 9 24 34 19 33 -6z m54 -6 c-7 -27 -43 -31 -42 -4 0 10 3 12 6 5 7 -19 21
-15 28 8 9 27 16 20 8 -9z m57 24 c0 -2 -9 -6 -20 -9 -11 -3 -18 -1 -14 4 5 9
34 13 34 5z m17 -17 c-4 -15 -2 -19 9 -15 8 3 14 1 14 -4 0 -11 -23 -14 -32
-4 -7 6 2 44 9 44 3 0 3 -9 0 -21z m83 4 c0 -15 -2 -16 -10 -3 -9 13 -11 13
-20 0 -8 -13 -10 -12 -10 3 0 10 8 17 20 17 12 0 20 -7 20 -17z m52 -8 c-6
-33 -42 -35 -41 -2 0 21 1 21 8 2 8 -19 8 -19 20 3 15 29 19 28 13 -3z m34 6
c-13 -15 -14 -20 -4 -24 8 -4 7 -6 -4 -6 -20 -1 -24 14 -8 24 6 4 8 11 5 16
-4 5 2 9 11 9 16 0 16 -1 0 -19z m114 -1 c0 -11 -7 -23 -15 -27 -22 -8 -31 5
-15 20 10 9 11 9 6 0 -4 -7 -2 -13 3 -13 15 0 14 27 -1 33 -8 3 -6 6 5 6 11 1
17 -6 17 -19z m109 -2 c-1 -17 -2 -19 -6 -5 -5 20 -23 23 -23 5 0 -9 -4 -8
-10 2 -9 13 -11 13 -20 0 -8 -13 -10 -12 -10 3 0 13 8 17 35 17 30 0 35 -3 34
-22z m118 -3 c1 -14 0 -15 -3 -3 -3 9 -15 19 -27 22 -18 4 -18 4 3 3 17 -1 25
-8 27 -22z m223 16 c0 -5 -9 -7 -20 -4 -14 4 -20 0 -20 -13 0 -9 -3 -15 -6
-11 -4 3 -4 13 -1 22 7 16 47 21 47 6z m80 -2 c0 -5 -5 -7 -11 -3 -6 3 -15 0
-20 -7 -5 -9 -3 -16 9 -21 16 -6 16 -7 0 -7 -21 -1 -32 15 -24 34 6 17 46 20
46 4z m84 3 c2 -4 1 -14 -5 -22 -7 -13 -9 -12 -9 3 0 25 -20 21 -21 -5 l-2
-23 -4 23 c-5 24 -18 29 -26 10 -3 -8 -6 -6 -6 5 -1 13 7 17 33 17 19 0 37 -4
40 -8z m56 -12 c0 -24 -26 -38 -42 -22 -8 8 -8 15 2 27 18 21 40 19 40 -5z
m60 8 c0 -7 -5 -20 -11 -28 -9 -12 -10 -10 -6 8 4 18 2 22 -9 18 -8 -3 -14 -1
-14 4 0 6 9 10 20 10 11 0 20 -6 20 -12z m23 -8 c-3 -12 -8 -19 -11 -16 -5 6
5 36 12 36 2 0 2 -9 -1 -20z m56 -2 c-1 -19 -2 -19 -6 -5 -3 11 -11 16 -19 13
-8 -3 -14 -1 -14 4 0 6 9 10 20 10 14 0 20 -6 19 -22z m127 6 c-3 -9 -6 -20
-6 -25 0 -5 -9 -9 -20 -9 -24 0 -27 18 -4 27 13 5 13 7 2 14 -9 6 -6 9 11 9
17 0 22 -4 17 -16z m94 6 c0 -5 -7 -7 -15 -4 -9 4 -18 -2 -24 -17 l-10 -24 0
23 c-1 26 -18 30 -24 5 -4 -14 -5 -12 -6 5 -1 19 4 22 39 22 22 0 40 -4 40
-10z m66 -9 c-13 -15 -14 -20 -4 -24 7 -3 2 -6 -11 -6 -23 -1 -23 0 -8 17 10
10 14 22 10 25 -3 4 2 7 12 7 17 0 17 -1 1 -19z m62 -3 c-2 -15 -11 -24 -25
-26 -29 -4 -30 18 -2 25 16 4 17 8 7 14 -10 7 -9 9 5 9 13 0 18 -6 15 -22z
m65 2 c-3 -11 -9 -22 -13 -25 -5 -3 -6 5 -2 17 4 17 2 20 -11 15 -10 -4 -17
-2 -17 3 0 6 11 10 24 10 19 0 23 -4 19 -20z m36 13 c0 -5 -4 -17 -9 -28 -8
-17 -8 -16 -7 8 1 15 5 27 9 27 4 0 8 -3 7 -7z m57 -9 c-3 -9 -6 -20 -6 -25 0
-5 -9 -9 -20 -9 -11 0 -20 7 -20 15 0 8 5 15 11 15 5 0 7 -4 4 -10 -3 -5 -1
-10 4 -10 6 0 11 9 11 20 0 11 5 20 11 20 6 0 8 -7 5 -16z m63 9 c0 -5 -5 -17
-10 -28 -9 -19 -9 -18 -5 3 5 26 -20 31 -27 5 -4 -14 -5 -12 -6 5 -1 17 4 22
24 22 14 0 25 -3 24 -7z m208 -14 c-4 -15 -2 -19 9 -15 8 3 14 1 14 -4 0 -15
-38 -12 -43 3 -6 16 3 37 15 37 6 0 8 -9 5 -21z m33 11 c0 -5 -4 -10 -10 -10
-5 0 -10 5 -10 10 0 6 5 10 10 10 6 0 10 -4 10 -10z m-1473 -18 c14 11 15 11
11 -2 -2 -8 -12 -16 -21 -18 -12 -3 -17 3 -16 20 1 18 2 19 6 5 4 -15 7 -16
20 -5z m-619 0 c13 11 14 11 10 -2 -7 -23 -38 -25 -37 -3 0 11 3 13 6 5 4 -10
8 -10 21 0z m1869 -14 c-3 -8 -6 -5 -6 6 -1 11 2 17 5 13 3 -3 4 -12 1 -19z
m-1717 -2 c-7 -7 -13 -7 -20 0 -6 6 -3 10 10 10 13 0 16 -4 10 -10z m520 -2
c0 -2 -7 -4 -15 -4 -8 0 -15 4 -15 10 0 5 7 7 15 4 8 -4 15 -8 15 -10z m665 6
c3 -5 1 -10 -4 -10 -6 0 -11 5 -11 10 0 6 2 10 4 10 3 0 8 -4 11 -10z m-1395
-70 c0 -5 -7 -7 -15 -4 -20 8 -19 -6 3 -22 19 -15 5 -19 -17 -5 -17 11 -7 41
14 41 8 0 15 -4 15 -10z m60 -14 c0 -11 -19 -15 -25 -6 -3 5 1 10 9 10 9 0 16
-2 16 -4z m280 -6 c0 -5 -5 -10 -11 -10 -5 0 -7 5 -4 10 3 6 8 10 11 10 2 0 4
-4 4 -10z m-262 -39 c-15 -5 -21 7 -13 26 7 17 8 17 15 -2 4 -11 3 -22 -2 -24z
m82 2 c0 -2 -5 -2 -12 0 -18 3 -37 21 -32 29 4 6 44 -21 44 -29z m995 28 c3
-5 2 -12 -3 -15 -5 -3 -9 1 -9 9 0 17 3 19 12 6z m173 -16 c-3 -3 -9 2 -12 12
-6 14 -5 15 5 6 7 -7 10 -15 7 -18z m162 15 c0 -5 -2 -10 -4 -10 -3 0 -8 5
-11 10 -3 6 -1 10 4 10 6 0 11 -4 11 -10z m-520 -15 c0 -8 -4 -15 -10 -15 -5
0 -7 7 -4 15 4 8 8 15 10 15 2 0 4 -7 4 -15z m-987 -12 c-7 -2 -19 -2 -25 0
-7 3 -2 5 12 5 14 0 19 -2 13 -5z m-53 -123 c0 -5 -2 -10 -4 -10 -3 0 -8 5
-11 10 -3 6 -1 10 4 10 6 0 11 -4 11 -10z m154 -12 c5 -10 7 -10 12 0 12 25
31 12 26 -18 -5 -33 -22 -52 -22 -24 0 13 -3 14 -15 4 -12 -10 -15 -9 -16 6 0
15 -3 14 -11 -6 -14 -33 -22 -11 -9 23 11 29 26 35 35 15z m93 6 c-3 -3 -12
-4 -19 -1 -8 3 -5 6 6 6 11 1 17 -2 13 -5z m82 -11 c1 9 5 17 11 17 5 0 7 -7
4 -15 -4 -11 -2 -13 9 -10 11 5 13 0 10 -20 -6 -28 -33 -31 -45 -5 -5 12 -7
12 -7 -2 -1 -10 -5 -18 -10 -18 -5 0 -7 10 -3 23 5 19 4 20 -11 8 -9 -7 -14
-17 -11 -22 3 -5 -13 -9 -35 -9 -34 0 -41 3 -41 19 0 11 5 23 12 27 8 5 9 0 5
-17 l-6 -24 20 25 20 25 -7 -25 c-6 -22 -5 -23 9 -11 9 7 14 18 10 24 -4 6 4
8 21 5 19 -4 26 -1 27 11 0 12 2 11 9 -4 7 -17 9 -17 9 -2z m112 7 c13 7 19 7
19 0 0 -5 -4 -10 -10 -10 -5 0 -10 -7 -10 -15 0 -8 5 -15 10 -15 6 0 10 4 10
9 0 18 34 22 46 6 11 -14 12 -14 18 0 8 22 60 14 64 -9 2 -10 -2 -23 -8 -30
-10 -8 -12 -6 -7 12 3 12 1 22 -4 22 -5 0 -9 -6 -9 -14 0 -8 -5 -18 -12 -22
-8 -5 -9 0 -6 14 4 12 3 22 -2 22 -4 0 -10 -10 -14 -22 -5 -18 -8 -20 -15 -9
-6 9 -11 10 -15 2 -9 -14 -66 -9 -66 7 0 18 -17 15 -24 -4 -13 -34 -18 -4 -5
33 7 21 14 32 16 26 3 -9 10 -10 24 -3z m242 -42 c-6 -34 -23 -37 -24 -5 l0
22 -11 -22 c-15 -32 -48 -30 -48 2 0 14 5 25 11 25 6 0 9 -7 5 -15 -3 -8 -1
-15 4 -15 6 0 10 6 10 13 0 14 41 36 52 28 3 -3 4 -18 1 -33z m32 10 c-8 -36
-12 -44 -20 -36 -8 8 7 68 17 68 6 0 7 -14 3 -32z m229 7 c18 -14 18 -15 2
-21 -11 -4 -21 -1 -26 6 -7 11 -11 11 -24 0 -22 -18 -31 -6 -11 14 20 20 34
20 59 1z m-176 -17 c-2 -15 -11 -24 -25 -26 -26 -4 -31 15 -7 25 13 5 13 7 2
14 -9 6 -6 9 10 9 19 0 23 -5 20 -22z m35 -4 c-9 -15 -19 -21 -21 -15 -6 19 6
41 23 41 14 0 13 -3 -2 -26z m28 -17 c-13 -13 -15 1 -4 30 7 17 8 17 11 -1 2
-10 -1 -23 -7 -29z m-780 -118 c-9 -22 -10 -22 -10 -3 -1 11 2 24 6 27 12 12
14 0 4 -24z m343 -3 c-3 -14 -10 -26 -14 -26 -5 0 -3 13 3 30 13 35 21 33 11
-4z m173 12 c-3 -8 -6 -5 -6 6 -1 11 2 17 5 13 3 -3 4 -12 1 -19z m-554 -21
c-3 -5 -9 -3 -14 4 -4 7 -5 17 -2 22 3 5 9 3 14 -4 4 -7 5 -17 2 -22z m105 21
c9 -9 12 -9 12 0 0 7 7 12 15 12 9 0 15 -9 14 -22 0 -21 -1 -21 -8 -4 -5 14
-10 16 -15 8 -4 -7 -4 -16 -1 -22 3 -5 1 -10 -4 -10 -6 0 -11 5 -11 11 0 5 -4
7 -10 4 -6 -4 -7 1 -3 11 5 14 3 16 -11 11 -10 -4 -15 -3 -11 3 8 13 18 13 33
-2z m99 -20 c-3 -8 -6 -5 -6 6 -1 11 2 17 5 13 3 -3 4 -12 1 -19z m233 2 c0
-11 -5 -20 -11 -20 -5 0 -7 5 -4 10 3 6 1 10 -4 10 -6 0 -11 -5 -11 -12 0 -6
-3 -8 -7 -4 -5 4 1 14 11 22 25 18 26 18 26 -6z m27 -22 c-3 -7 -5 -2 -5 12 0
14 2 19 5 13 2 -7 2 -19 0 -25z m276 12 c-3 -11 -12 -20 -19 -20 -11 0 -10 5
3 20 10 11 18 20 19 20 1 0 0 -9 -3 -20z m70 0 c-3 -12 -8 -19 -11 -16 -5 6 5
36 12 36 2 0 2 -9 -1 -20z m87 14 c0 -3 -5 -14 -10 -25 -14 -25 -36 -24 -43 1
-3 11 -1 18 4 14 5 -3 9 0 9 5 0 6 9 11 20 11 11 0 20 -3 20 -6z m94 -3 c9
-14 -4 -41 -19 -41 -24 0 -28 21 -5 27 16 4 18 8 8 14 -9 6 -9 9 -1 9 6 0 14
-4 17 -9z m-654 -17 c0 -2 -7 -4 -15 -4 -8 0 -15 4 -15 10 0 5 7 7 15 4 8 -4
15 -8 15 -10z m207 -6 c-3 -8 -6 -5 -6 6 -1 11 2 17 5 13 3 -3 4 -12 1 -19z
m76 7 c-3 -9 -8 -14 -10 -11 -3 3 -2 9 2 15 9 16 15 13 8 -4z m71 0 c-6 -16
-44 -21 -44 -7 0 14 12 22 31 22 12 0 16 -5 13 -15z m340 -10 c-9 -14 -19 -23
-22 -20 -5 4 26 45 35 45 2 0 -4 -11 -13 -25z m-100 0 c3 -9 0 -15 -9 -15 -9
0 -12 6 -9 15 4 8 7 15 9 15 2 0 5 -7 9 -15z m-889 -125 c-14 -6 -15 -9 -5
-10 12 0 12 -3 -2 -14 -23 -17 -23 -26 1 -26 11 0 23 9 26 20 3 11 11 20 16
20 6 0 7 5 4 10 -3 6 1 10 10 10 14 0 16 -7 10 -42 -9 -53 -38 -78 -51 -43 -4
8 -17 15 -30 15 -27 0 -29 7 -14 44 6 18 17 26 32 25 22 0 22 -1 3 -9z m91
-16 c-6 -24 -6 -25 9 -10 18 17 31 20 39 8 2 -4 38 -6 80 -5 73 1 111 -12 66
-24 -17 -4 -19 -8 -8 -15 9 -7 8 -8 -7 -6 -12 2 -19 11 -19 21 1 9 -4 17 -12
17 -19 0 -29 -21 -13 -31 9 -6 3 -8 -18 -6 -25 1 -33 7 -33 22 -1 18 -2 17
-15 -5 -11 -19 -14 -21 -15 -7 0 9 -8 17 -17 17 -14 0 -15 -2 -4 -9 20 -13 -3
-23 -34 -15 -28 7 -29 11 -15 48 13 34 24 33 16 0z m278 5 c4 6 11 11 17 11 5
0 4 -9 -3 -20 -7 -10 -9 -23 -5 -27 5 -4 11 -2 15 4 4 6 35 11 70 12 55 0 62
-2 62 -19 0 -27 -20 -36 -21 -8 0 23 0 23 -11 -2 l-11 -25 -6 25 -7 25 -7 -25
c-5 -19 -9 -22 -16 -11 -6 9 -11 10 -15 2 -9 -14 -66 -9 -66 7 0 6 -4 12 -10
12 -5 0 -10 -4 -10 -10 0 -5 -4 -10 -10 -10 -13 0 -13 12 1 47 7 20 12 24 18
14 6 -9 11 -10 15 -2z m284 -39 c-6 -22 -14 -38 -18 -35 -5 3 -6 15 -2 27 3
14 2 19 -6 14 -7 -4 -12 -16 -12 -27 0 -27 -20 -14 -21 14 l0 22 -9 -22 c-13
-33 -50 -31 -50 2 0 14 5 25 11 25 7 0 9 -9 6 -22 -6 -23 -6 -23 12 1 13 17
29 24 50 24 17 0 31 4 31 9 0 4 4 8 9 8 5 0 4 -17 -1 -40z m49 9 c15 -15 4
-49 -16 -49 -26 0 -30 8 -17 35 12 28 17 30 33 14z m186 -4 c18 -13 18 -14 -2
-25 -12 -6 -22 -8 -22 -5 -1 3 -3 10 -4 15 -1 6 -3 13 -4 18 -1 4 -8 -2 -16
-12 -8 -11 -18 -17 -21 -13 -10 10 16 37 35 37 9 0 24 -7 34 -15z m-113 -14
c0 -11 -5 -23 -12 -27 -8 -5 -9 0 -6 14 8 28 -8 28 -22 1 -14 -25 -24 -18 -15
10 9 28 55 29 55 2z m-706 -125 c-3 -15 -8 -25 -11 -23 -2 3 -1 17 3 31 3 15
8 25 11 23 2 -3 1 -17 -3 -31z m-200 16 c2 -4 2 -13 -2 -18 -10 -15 -42 -25
-42 -14 0 6 6 10 14 10 8 0 18 5 22 12 5 8 2 9 -10 5 -10 -4 -15 -3 -11 3 7
12 22 13 29 2z m96 -6 c0 -18 -15 -36 -29 -35 -10 0 -11 2 -3 6 6 2 12 9 12
14 0 6 -5 7 -12 3 -7 -4 -8 -3 -4 4 7 11 36 17 36 8z m30 -21 c-7 -9 -15 -13
-17 -11 -6 6 20 36 26 30 2 -2 -2 -10 -9 -19z m203 -4 c-2 -10 -11 -18 -19
-18 -9 0 -13 6 -9 14 3 8 5 19 5 24 0 4 6 6 14 3 8 -3 12 -13 9 -23z m-393 15
c0 -2 -8 -10 -17 -17 -16 -13 -17 -12 -4 4 13 16 21 21 21 13z m437 -16 c-1
-11 -8 -20 -15 -20 -11 0 -12 3 -3 13 6 8 8 17 4 20 -3 4 -1 7 5 7 6 0 10 -9
9 -20z m53 -12 c0 -5 -5 -8 -11 -8 -5 0 -7 5 -4 10 3 6 1 10 -5 10 -6 0 -8 5
-4 11 6 11 23 -6 24 -23z m35 22 c-3 -5 -1 -10 6 -10 7 0 10 -3 6 -6 -9 -9
-28 6 -22 17 4 5 8 9 11 9 3 0 2 -4 -1 -10z m-413 -170 c-4 -21 -2 -23 13 -10
14 11 20 11 37 1 11 -7 17 -8 14 -2 -8 12 11 24 25 15 8 -4 8 -9 0 -17 -6 -6
-11 -20 -11 -31 -1 -21 -1 -21 -15 -2 -8 11 -15 15 -15 9 0 -7 -21 -12 -56
-12 l-55 0 7 32 c9 44 13 49 37 45 17 -2 21 -9 19 -28z m169 10 c13 7 19 7 19
0 0 -5 -4 -10 -10 -10 -5 0 -10 -13 -10 -30 0 -16 -4 -30 -10 -30 -5 0 -10 8
-10 17 0 15 -2 14 -15 -3 -12 -17 -14 -17 -15 -2 0 25 22 75 27 61 3 -9 10
-10 24 -3z m238 -47 c-6 -7 -8 -17 -4 -23 3 -5 -1 -10 -9 -10 -9 0 -17 8 -17
18 -1 16 -2 16 -6 0 -3 -11 -14 -18 -29 -18 -25 0 -28 7 -18 34 9 24 23 19 18
-6 -4 -22 -4 -22 6 -3 14 26 52 45 62 31 4 -6 2 -16 -3 -23z m35 8 c-6 -27 -4
-29 16 -24 14 4 18 8 10 13 -7 4 -8 10 -3 13 11 7 28 -4 36 -23 4 -12 6 -11 6
3 1 12 9 17 31 17 31 0 35 -6 24 -34 -9 -23 -23 -20 -17 4 3 12 0 20 -7 20 -6
0 -14 -8 -17 -19 -4 -15 -14 -18 -54 -18 -52 0 -56 5 -43 55 9 33 24 27 18 -7z
m-574 0 c0 -24 -13 -33 -34 -25 -12 5 -13 10 -5 25 13 25 39 24 39 0z m445 8
c7 -7 -6 -49 -15 -49 -5 0 -6 10 -3 23 4 21 3 21 -11 -3 l-15 -25 -1 25 -1 25
-14 -25 -14 -25 -1 25 c-1 22 -2 23 -11 8 -12 -21 -49 -24 -49 -5 0 26 23 36
77 33 29 -2 55 -5 58 -7z m363 -31 c2 -13 -3 -18 -17 -18 -14 0 -19 5 -15 15
7 18 -7 20 -24 3 -14 -14 -27 -5 -17 12 11 18 69 8 73 -12z m-884 -113 c-9
-14 -18 -25 -21 -25 -5 0 5 18 20 38 17 22 18 13 1 -13z m260 -9 c-3 -15 -8
-25 -11 -23 -2 3 -1 17 3 31 3 15 8 25 11 23 2 -3 1 -17 -3 -31z m-204 20 c0
-2 -7 -6 -15 -10 -8 -3 -15 -1 -15 4 0 6 7 10 15 10 8 0 15 -2 15 -4z m40 -6
c0 -5 -2 -10 -4 -10 -3 0 -8 5 -11 10 -3 6 -1 10 4 10 6 0 11 -4 11 -10z m260
3 c-1 -5 -12 -21 -26 -38 -26 -30 -23 -21 6 23 16 23 20 27 20 15z m-200 -10
c0 -5 -5 -15 -11 -23 -9 -12 -10 -12 -5 4 5 13 2 17 -9 12 -8 -3 -15 -1 -15 4
0 6 9 10 20 10 11 0 20 -3 20 -7z m45 -3 c-4 -6 -11 -7 -17 -4 -6 4 -5 -2 1
-15 10 -17 9 -22 -4 -27 -22 -9 -29 1 -21 31 4 16 13 25 27 25 11 0 17 -5 14
-10z m232 -20 c-2 -35 -17 -41 -17 -7 0 21 7 37 16 37 2 0 2 -13 1 -30z m-377
10 c0 -5 -5 -10 -11 -10 -5 0 -7 5 -4 10 3 6 8 10 11 10 2 0 4 -4 4 -10z m333
4 c-7 -3 -9 -12 -6 -21 4 -11 2 -14 -5 -9 -18 11 -14 36 6 35 9 0 12 -3 5 -5z
m141 -15 c-3 -5 -10 -7 -15 -3 -5 3 -7 10 -3 15 3 5 10 7 15 3 5 -3 7 -10 3
-15z m-39 -10 c0 -7 -8 -15 -17 -17 -10 -2 -18 2 -18 8 0 6 5 8 12 4 8 -5 9
-2 5 10 -5 12 -3 16 5 14 7 -3 13 -11 13 -19z m185 -4 c-7 -8 -8 -20 -4 -26 4
-8 3 -9 -4 -5 -10 6 -10 22 -3 54 1 2 6 0 11 -3 8 -5 7 -11 0 -20z m-100 -5
c0 -11 -4 -20 -9 -20 -5 0 -7 9 -4 20 3 11 7 20 9 20 2 0 4 -9 4 -20z m150
-10 c0 -11 -4 -20 -9 -20 -5 0 -7 9 -4 20 3 11 7 20 9 20 2 0 4 -9 4 -20z m60
16 c0 -2 -7 -7 -16 -10 -8 -3 -12 -2 -9 4 6 10 25 14 25 6z m41 -5 c-9 -6 -10
-11 -2 -15 6 -4 8 -12 4 -19 -4 -7 -9 -4 -13 9 -9 22 -4 34 13 34 8 0 8 -3 -2
-9z m-191 -11 c0 -5 -5 -10 -11 -10 -5 0 -7 5 -4 10 3 6 8 10 11 10 2 0 4 -4
4 -10z m-550 -127 c0 -14 2 -14 20 2 20 18 20 17 20 -9 0 -24 2 -25 20 -14 15
9 22 10 31 1 12 -12 45 0 61 22 4 6 8 0 8 -12 0 -17 4 -20 21 -16 12 4 25 0
30 -8 6 -9 9 -10 9 -2 0 7 14 11 38 9 31 -2 37 -6 36 -24 0 -12 5 -22 12 -22
7 0 10 8 7 20 -5 18 -1 20 26 18 17 -1 31 -7 31 -12 0 -6 4 -6 10 0 16 16 70
5 71 -15 1 -14 2 -13 6 2 5 17 38 24 47 9 8 -13 -5 -52 -16 -52 -6 0 -8 9 -5
20 7 28 -9 25 -18 -2 -4 -14 -8 -18 -11 -11 -4 9 -11 10 -25 2 -16 -8 -21 -6
-27 12 -8 21 -8 21 -25 -5 -20 -30 -44 -37 -26 -7 7 11 9 26 4 37 -7 17 -8 17
-14 -6 -4 -14 -12 -25 -19 -24 -7 1 -25 2 -42 3 -33 1 -42 26 -12 34 11 3 8 5
-9 6 -19 1 -29 -5 -34 -21 -6 -20 -8 -20 -12 -5 -3 10 -14 17 -26 16 -21 0
-21 -1 -3 -8 15 -6 17 -9 6 -16 -8 -5 -18 -1 -27 10 -7 11 -13 13 -13 7 0 -7
-11 -12 -25 -12 -14 0 -25 5 -25 10 0 7 -7 7 -21 0 -14 -8 -24 -8 -33 -1 -7 6
-16 8 -19 4 -4 -3 -7 2 -7 12 0 14 -3 15 -15 5 -13 -10 -15 -9 -15 11 -1 22
-2 22 -15 -6 -16 -35 -20 -10 -5 29 11 29 30 35 30 9z m601 -46 c-6 -6 -11
-20 -11 -30 0 -18 2 -17 18 4 14 16 24 20 38 14 10 -4 36 -7 57 -6 33 2 37 0
37 -23 0 -13 -4 -28 -10 -31 -6 -3 -10 4 -10 17 l-1 23 -14 -25 -14 -25 -1 30
c-1 30 -1 30 -11 5 -8 -18 -12 -21 -18 -11 -6 9 -11 10 -15 2 -12 -19 -68 -9
-74 13 -5 18 -6 18 -18 1 -18 -25 -23 -17 -13 21 7 26 14 31 40 32 24 1 29 -2
20 -11z m262 -15 c2 7 7 10 11 7 10 -10 -4 -79 -16 -79 -6 0 -8 11 -6 25 3 14
1 25 -3 25 -9 0 -13 -15 -10 -39 2 -7 -4 -11 -11 -9 -8 3 -12 16 -9 34 4 39
10 47 26 34 10 -8 14 -7 18 2z m-81 -34 c8 30 26 28 20 -3 -6 -35 -52 -36 -52
-2 0 36 14 43 20 10 5 -26 6 -27 12 -5z m148 12 c0 -6 11 -8 25 -4 l24 6 -16
-33 -17 -34 -7 25 c-4 16 -7 19 -8 8 -1 -12 -9 -18 -26 -18 -31 0 -33 18 -2
30 18 7 18 9 4 9 -10 1 -15 6 -12 11 8 13 35 13 35 0z m75 -27 c-8 -31 -13
-39 -20 -31 -9 9 6 58 17 58 6 0 7 -11 3 -27z m111 12 c17 -17 11 -35 -13 -35
-9 0 -13 6 -10 14 9 22 -5 28 -25 9 -22 -19 -36 -10 -18 12 16 19 47 19 66 0z
m-1090 -84 c-15 -52 -28 -65 -14 -15 10 40 16 54 23 54 1 0 -2 -18 -9 -39z
m-156 4 c0 -8 8 -11 21 -8 16 4 17 8 7 14 -9 6 -9 9 -1 9 6 0 15 -5 18 -10 4
-6 11 -8 16 -5 5 4 6 -2 2 -11 -4 -12 -8 -14 -11 -5 -3 8 -8 7 -17 -6 -10 -14
-16 -15 -27 -5 -10 8 -18 8 -25 1 -8 -8 -13 -7 -18 0 -3 6 -1 10 6 9 6 -2 14
3 16 10 3 6 0 12 -6 12 -6 0 -11 4 -11 10 0 5 7 7 15 4 8 -4 15 -12 15 -19z
m-60 1 c0 -2 -8 -10 -17 -17 -16 -13 -17 -12 -4 4 13 16 21 21 21 13z m147
-28 c-3 -7 -5 -2 -5 12 0 14 2 19 5 13 2 -7 2 -19 0 -25z m196 -10 c-3 -10
-11 -14 -20 -11 -8 3 -12 12 -9 20 3 8 6 19 6 24 0 5 6 4 13 -3 8 -7 12 -20
10 -30z m-59 7 c-9 -14 -18 -25 -21 -25 -5 0 5 18 20 38 17 22 18 13 1 -13z
m154 8 c-10 -2 -18 -14 -19 -26 0 -12 -3 -16 -6 -9 -8 20 5 42 24 41 17 -1 17
-2 1 -6z m47 -28 c0 -22 -2 -23 -15 -9 -13 13 -13 16 0 24 8 5 15 10 15 10 0
0 0 -11 0 -25z m-100 -5 c3 -5 -1 -10 -10 -10 -9 0 -13 5 -10 10 3 6 8 10 10
10 2 0 7 -4 10 -10z m-285 -130 c0 -5 -7 -7 -15 -4 -22 9 -18 -9 4 -23 15 -10
21 -10 24 0 3 7 6 2 6 -10 1 -12 -3 -25 -9 -28 -5 -3 -10 -1 -10 6 0 8 -4 8
-15 -1 -16 -13 -45 -7 -45 9 0 5 9 7 20 4 24 -6 26 5 3 22 -9 7 -13 17 -9 23
9 14 46 16 46 2z m102 -39 c-7 -4 -10 -15 -6 -26 5 -13 3 -16 -7 -13 -13 5
-14 25 -3 57 4 11 7 12 17 2 9 -9 9 -14 -1 -20z m-41 10 c-9 -6 -10 -10 -2
-16 16 -9 -5 -36 -23 -29 -22 8 -7 54 18 54 15 0 17 -3 7 -9z m243 -3 c-5 -9
-2 -8 9 1 21 17 34 7 18 -13 -7 -8 -9 -20 -5 -27 5 -8 9 -7 16 5 12 21 34 20
47 -1 10 -17 10 -17 11 0 0 16 5 17 33 11 17 -4 40 -8 50 -8 10 0 17 -8 17
-21 0 -14 3 -16 9 -7 4 7 20 19 34 27 21 11 26 11 31 -1 3 -7 1 -16 -5 -20 -5
-3 -7 -14 -4 -25 4 -13 2 -19 -9 -19 -10 0 -16 10 -17 28 -2 23 -2 24 -6 5 -3
-16 -11 -23 -29 -23 -18 0 -24 6 -25 23 l0 22 -9 -22 c-13 -31 -24 -29 -16 3
5 17 3 23 -4 19 -5 -3 -10 -13 -10 -21 0 -8 -5 -14 -11 -14 -6 0 -8 9 -4 20 4
11 2 20 -4 20 -6 0 -11 -9 -11 -20 0 -11 -4 -20 -10 -20 -5 0 -10 5 -10 10 0
6 -9 5 -21 -2 -17 -10 -23 -10 -26 -1 -2 7 -11 9 -19 6 -8 -3 -14 1 -14 11 0
9 -4 16 -10 16 -5 0 -10 -7 -10 -15 0 -8 -4 -15 -10 -15 -13 0 -13 10 1 49 6
17 15 31 21 31 5 0 6 -6 2 -12z m-144 -10 c0 -10 3 -9 9 1 13 20 71 5 71 -19
0 -28 -20 -35 -21 -8 l-2 23 -4 -22 c-2 -13 -9 -23 -15 -23 -6 0 -8 9 -5 20 7
28 -9 25 -18 -2 -6 -20 -8 -20 -12 -5 -2 9 -12 17 -21 17 -15 0 -15 -2 -2 -10
12 -8 11 -10 -7 -10 -22 0 -32 27 -16 43 11 12 43 8 43 -5z m-300 -8 c0 -5 -4
-10 -10 -10 -5 0 -10 5 -10 10 0 6 5 10 10 10 6 0 10 -4 10 -10z m744 -36 c-6
-34 -6 -35 14 -23 15 10 18 16 9 21 -8 5 -4 8 11 8 16 0 22 -6 23 -22 l0 -23
9 23 c9 22 40 31 40 12 0 -5 -4 -10 -9 -10 -5 0 -12 -9 -16 -20 -5 -17 -12
-19 -53 -14 -26 3 -48 7 -50 9 -7 7 11 75 20 75 5 0 6 -16 2 -36z m220 -4 c31
-11 35 -40 6 -40 -13 0 -18 5 -14 15 4 9 0 15 -10 15 -9 0 -16 -4 -16 -10 0
-5 -7 -10 -17 -10 -14 0 -14 2 2 20 21 23 17 23 49 10z m-92 -25 c-2 -14 -8
-25 -13 -25 -10 0 -12 34 -2 43 13 14 20 6 15 -18z m-942 -65 c-12 -16 -24
-30 -26 -30 -3 0 4 14 16 30 12 17 24 30 26 30 3 0 -4 -13 -16 -30z m323 0
c-3 -12 -8 -19 -11 -16 -5 6 5 36 12 36 2 0 2 -9 -1 -20z m-270 -24 c-3 -4 -9
-2 -14 5 -13 22 -11 31 5 17 8 -7 12 -17 9 -22z m57 20 c0 -16 -14 -36 -26
-36 -14 0 -19 22 -7 33 7 8 33 10 33 3z m88 -23 c-4 -22 -38 -30 -38 -10 0 14
13 24 33 26 5 1 7 -7 5 -16z m37 -23 c-3 -6 -12 -10 -18 -10 -9 0 -8 3 1 8 7
5 10 17 7 28 -6 17 -6 18 5 1 6 -9 8 -22 5 -27z m191 5 c-7 -27 8 -35 18 -10
8 21 35 19 30 -2 -3 -11 -16 -19 -35 -20 -30 -2 -36 8 -23 41 10 25 17 19 10
-9z m-126 -22 c-11 -17 -11 -17 -6 0 3 10 6 24 7 30 0 9 2 9 5 0 3 -7 0 -20
-6 -30z m236 7 c-1 -39 -16 -39 -16 0 0 17 4 30 9 30 4 0 8 -13 7 -30z m51 -2
c-3 -7 -5 -2 -5 12 0 14 2 19 5 13 2 -7 2 -19 0 -25z m-87 2 c0 -11 -4 -20 -9
-20 -5 0 -7 9 -4 20 3 11 7 20 9 20 2 0 4 -9 4 -20z m-127 -5 c-3 -9 -8 -14
-10 -11 -3 3 -2 9 2 15 9 16 15 13 8 -4z m264 -7 c-3 -8 -6 -5 -6 6 -1 11 2
17 5 13 3 -3 4 -12 1 -19z m99 -8 c-1 -35 -16 -41 -16 -7 0 20 7 37 15 37 1 0
2 -13 1 -30z m-52 4 c3 -8 2 -12 -4 -9 -6 3 -10 10 -10 16 0 14 7 11 14 -7z
m-99 -14 c3 -5 1 -10 -4 -10 -6 0 -11 5 -11 10 0 6 2 10 4 10 3 0 8 -4 11 -10z
m52 -6 c-3 -3 -12 -4 -19 -1 -8 3 -5 6 6 6 11 1 17 -2 13 -5z m50 -10 c-3 -3
-12 -4 -19 -1 -8 3 -5 6 6 6 11 1 17 -2 13 -5z m-711 -105 c-3 -17 -6 -38 -6
-45 0 -8 -10 -14 -25 -14 -21 0 -25 5 -25 29 0 45 10 61 37 61 23 0 25 -3 19
-31z m114 20 c-18 -7 -21 -12 -11 -18 10 -7 9 -9 -3 -14 -21 -8 -20 -24 2 -30
10 -3 6 -5 -11 -6 -25 -1 -28 2 -22 22 4 12 9 30 11 40 4 11 15 17 32 16 l27
0 -25 -10z m52 -23 c6 4 8 -2 4 -17 -6 -22 -6 -23 7 -6 20 25 47 22 48 -5 l0
-23 9 22 c6 15 15 20 29 16 12 -3 21 -9 21 -14 0 -5 9 -4 21 3 17 11 22 10 35
-6 8 -11 14 -14 14 -8 0 7 15 12 35 12 31 0 35 -3 36 -27 2 -24 2 -25 6 -5 4
21 23 32 23 13 0 -42 -49 -60 -51 -18 l0 22 -9 -22 c-12 -28 -24 -30 -17 -3 3
11 1 20 -4 20 -5 0 -9 -7 -9 -15 0 -8 -4 -15 -10 -15 -5 0 -10 5 -10 11 0 8
-5 8 -15 -1 -9 -7 -22 -9 -32 -5 -10 5 -23 7 -30 6 -7 -1 -10 8 -7 21 l5 23
-12 -22 c-10 -18 -17 -21 -53 -16 -22 3 -49 6 -58 7 -21 0 -22 3 -6 47 9 24
13 29 16 16 2 -9 8 -14 14 -11z m298 -16 c0 -5 -4 -10 -10 -10 -5 0 -10 5 -10
10 0 6 5 10 10 10 6 0 10 -4 10 -10z m50 -11 c0 -8 5 -7 15 1 19 15 32 6 17
-12 -5 -7 -12 -26 -14 -43 l-4 -30 -11 25 c-10 22 -12 23 -18 8 -14 -34 -23
-18 -13 22 10 37 28 56 28 29z m82 -36 c12 -11 18 -12 18 -3 0 9 9 10 33 6 17
-4 40 -8 50 -9 10 -1 17 -10 17 -22 1 -19 1 -19 13 3 7 12 16 20 20 16 3 -4
13 -2 21 5 11 9 15 9 18 -1 4 -10 8 -10 22 1 16 14 17 12 11 -23 -7 -36 -7
-37 13 -25 15 10 18 16 9 21 -8 5 -4 8 10 8 12 0 25 -5 29 -11 5 -8 9 -8 14 1
4 7 13 9 19 6 8 -5 7 -11 -3 -21 -8 -8 -16 -20 -18 -26 -3 -8 -19 -10 -52 -5
-44 7 -48 9 -43 32 3 16 0 23 -7 21 -6 -2 -10 -14 -8 -26 1 -15 -2 -21 -10
-18 -7 2 -13 14 -12 26 1 27 -12 28 -19 1 -7 -29 -47 -27 -48 3 -1 16 -2 18
-6 5 -2 -10 -9 -18 -14 -18 -6 0 -7 9 -4 21 5 15 4 19 -4 15 -6 -4 -11 -14
-11 -22 0 -8 -5 -14 -11 -14 -6 0 -8 9 -4 20 3 11 2 20 -3 20 -5 0 -13 -10
-16 -22 -7 -22 -8 -22 -15 -4 -5 14 -10 16 -15 8 -9 -15 -46 -16 -46 -1 0 14
19 49 27 49 4 0 15 -7 25 -17z m352 -60 c-8 -32 -12 -39 -19 -31 -9 8 6 58 16
58 5 0 6 -12 3 -27z m116 12 c14 -17 5 -35 -17 -35 -9 0 -13 6 -10 14 9 22 -5
28 -25 9 -22 -19 -36 -10 -18 12 16 19 54 19 70 0z m-1046 -54 c9 -14 -4 -41
-20 -41 -8 0 -14 7 -14 15 0 8 5 15 11 15 5 0 7 5 4 10 -3 6 -2 10 4 10 5 0
12 -4 15 -9z m95 -30 c-1 -13 -2 -13 -6 2 -2 9 -9 15 -14 12 -5 -4 -9 1 -9 11
0 13 3 14 15 4 8 -7 14 -20 14 -29z m-57 22 c-10 -4 -10 -8 -1 -19 8 -10 8
-14 0 -14 -6 0 -11 2 -11 4 0 2 -3 11 -6 20 -4 11 -1 16 12 15 12 0 14 -3 6
-6z m122 -27 c-3 -15 -8 -25 -11 -23 -2 3 -1 17 3 31 3 15 8 25 11 23 2 -3 1
-17 -3 -31z m-229 14 c3 -5 1 -10 -4 -10 -6 0 -11 5 -11 10 0 6 2 10 4 10 3 0
8 -4 11 -10z m315 -10 c-6 -11 -13 -20 -16 -20 -2 0 0 9 6 20 6 11 13 20 16
20 2 0 0 -9 -6 -20z m50 -7 c-8 -3 -18 -11 -22 -17 -5 -7 -8 -4 -8 7 0 11 7
17 23 16 15 0 17 -2 7 -6z m108 -19 c1 -1 0 -9 -4 -18 -3 -9 -16 -16 -28 -15
-20 0 -20 1 2 10 13 5 21 13 17 19 -4 6 -15 4 -31 -6 -23 -15 -24 -15 -18 1 5
13 3 16 -7 13 -8 -3 -13 -11 -11 -17 1 -6 -3 -11 -9 -11 -6 0 -9 8 -7 17 4 22
38 30 49 11 7 -10 9 -9 9 6 0 16 2 17 18 5 9 -7 18 -14 20 -15z m-414 -130 c9
-3 16 -12 16 -20 0 -12 27 -20 54 -15 5 1 16 -1 25 -5 9 -3 31 -7 49 -9 42 -3
46 -8 34 -42 l-10 -28 -2 30 -1 30 -11 -25 -11 -25 -5 25 -4 24 -14 -24 c-13
-24 -13 -24 -14 -3 0 16 -5 20 -21 16 -14 -4 -17 -8 -9 -13 8 -5 8 -10 2 -14
-13 -8 -36 20 -27 34 3 5 1 10 -5 10 -6 0 -13 -7 -16 -15 -9 -22 -23 -18 -17
4 4 16 1 19 -19 14 -12 -4 -28 -14 -35 -22 -15 -20 -16 -7 -2 42 10 38 15 42
43 31z m-124 -25 c0 -6 7 -9 15 -5 8 3 15 1 15 -5 0 -5 -7 -12 -16 -16 -8 -3
-13 -12 -9 -20 4 -11 1 -13 -11 -9 -8 3 -26 6 -38 6 -19 0 -22 4 -19 24 5 23
18 32 51 35 6 0 12 -4 12 -10z m349 -51 c1 6 5 12 10 12 5 0 7 -10 5 -22 l-5
-23 12 23 c16 30 27 28 21 -4 -6 -32 -31 -43 -47 -20 -10 13 -14 14 -18 4 -2
-7 -7 -10 -11 -7 -4 3 -1 19 5 35 10 27 12 27 19 9 5 -11 9 -14 9 -7z m131
-24 c0 -12 -4 -26 -10 -29 -6 -3 -10 4 -10 17 l-1 23 -14 -25 -14 -25 -1 25
c-1 22 -2 23 -11 8 -16 -28 -29 -21 -18 10 8 25 14 27 44 24 29 -3 35 -8 35
-28z m60 25 c0 -8 5 -7 15 1 9 7 19 9 23 5 4 -4 1 -10 -5 -12 -15 -5 -18 -43
-4 -43 5 0 11 7 15 15 7 20 33 19 45 -2 6 -10 11 -12 11 -5 0 14 48 16 68 3
15 -9 6 -61 -10 -61 -6 0 -7 11 -4 26 5 17 3 23 -4 19 -5 -3 -10 -13 -10 -21
0 -8 -5 -14 -11 -14 -6 0 -8 9 -4 20 3 11 2 20 -3 20 -5 0 -13 -10 -17 -22 -4
-14 -8 -18 -11 -11 -4 9 -11 10 -24 3 -13 -7 -21 -7 -25 1 -4 6 -14 8 -22 5
-10 -4 -17 2 -20 15 -6 21 -7 21 -20 4 -13 -18 -13 -18 -13 1 0 30 11 64 21
64 5 0 9 -5 9 -11z m316 -46 c-3 -10 -8 -30 -12 -45 -3 -16 -10 -26 -14 -23
-10 6 10 85 22 85 5 0 7 -8 4 -17z m-112 -19 c-5 -19 -4 -25 5 -20 6 4 11 14
11 22 0 8 5 14 10 14 11 0 12 -6 4 -37 -6 -23 -37 -32 -48 -14 -7 10 10 61 19
61 3 0 2 -12 -1 -26z m72 4 c-3 -13 -6 -31 -6 -41 0 -10 -4 -15 -10 -12 -11 7
-14 58 -3 68 14 15 25 6 19 -15z m94 -20 c7 -18 9 -19 9 -5 1 18 12 21 47 11
16 -4 20 -11 16 -30 -6 -34 -22 -41 -22 -10 0 31 -20 35 -27 6 -6 -22 -23 -27
-24 -7 0 10 -2 10 -6 0 -2 -7 -13 -13 -24 -13 -25 0 -26 40 -1 41 10 0 12 3 5
6 -18 7 -16 23 2 23 9 0 20 -10 25 -22z m184 -13 c21 -16 13 -35 -14 -35 -13
0 -17 5 -14 15 4 9 0 15 -10 15 -9 0 -16 -4 -16 -10 0 -5 -7 -10 -15 -10 -13
0 -14 4 -5 20 12 23 47 26 74 5z m-1116 -36 c-2 -12 -13 -26 -26 -30 -17 -7
-23 -6 -19 4 2 6 10 12 17 12 7 0 15 6 18 14 3 10 0 12 -12 8 -10 -4 -15 -3
-11 3 12 19 37 11 33 -11z m52 0 c0 -8 4 -8 14 0 10 9 16 9 21 1 4 -6 15 -8
26 -5 26 8 38 -1 32 -24 -5 -20 -34 -22 -41 -3 -5 16 -39 15 -45 0 -3 -8 -6
-7 -6 4 -1 23 -21 34 -32 17 -7 -11 -9 -10 -9 4 0 10 8 17 20 17 11 0 20 -5
20 -11z m305 -46 c-8 -27 -15 -50 -15 -52 0 -2 -2 -2 -5 1 -3 2 0 20 6 39 6
19 12 40 15 47 2 6 6 12 8 12 3 0 -1 -21 -9 -47z m-175 27 c0 -5 -2 -10 -4
-10 -3 0 -8 5 -11 10 -3 6 -1 10 4 10 6 0 11 -4 11 -10z m103 -9 c4 -1 7 -10
7 -22 0 -18 -5 -20 -42 -17 -34 2 -43 7 -45 23 l-3 20 10 -20 c9 -20 9 -19 16
2 4 16 12 21 28 19 11 -3 24 -5 29 -5z m-113 -21 c0 -5 -5 -10 -11 -10 -5 0
-7 5 -4 10 3 6 8 10 11 10 2 0 4 -4 4 -10z m260 -20 c-6 -11 -13 -20 -16 -20
-2 0 0 9 6 20 6 11 13 20 16 20 2 0 0 -9 -6 -20z m118 -11 c3 -6 9 -6 15 -1 7
5 19 12 29 15 14 5 15 1 7 -25 -10 -37 -22 -51 -17 -21 1 12 -1 21 -7 20 -5
-1 -9 -8 -9 -14 2 -16 -35 -11 -46 6 -6 11 -9 11 -13 0 -3 -8 -6 -4 -6 9 -1
26 -26 30 -35 6 -4 -9 -9 -14 -13 -11 -3 4 0 14 7 22 14 17 82 13 88 -6z m83
-8 c-9 -6 -10 -11 -2 -15 6 -4 11 -12 11 -17 0 -6 -7 -3 -16 5 -16 17 -11 36
9 36 8 0 8 -3 -2 -9z m-801 -352 c0 -12 -4 -11 -35 3 -35 16 -31 29 5 17 17
-6 30 -15 30 -20z m722 -361 c41 -6 72 -17 75 -25 3 -9 9 -10 17 -4 6 5 26 6
44 4 31 -5 34 -8 29 -37 -3 -17 -16 -58 -30 -91 -14 -33 -28 -71 -31 -85 -7
-24 -6 -24 9 3 20 35 29 34 22 -3 -6 -27 -3 -30 26 -38 38 -10 39 -9 87 114
41 104 48 111 98 96 22 -7 51 -12 66 -12 41 0 64 -16 71 -50 8 -37 12 -37 47
-3 27 26 28 26 100 14 106 -18 106 -18 119 -62 7 -21 17 -39 23 -39 5 0 24 14
42 31 l32 31 89 -19 c69 -14 88 -22 88 -35 0 -10 5 -22 12 -29 9 -9 8 -19 -2
-43 -34 -83 -44 -141 -22 -134 13 5 16 11 71 131 l36 78 37 -7 c21 -4 41 -11
44 -17 4 -5 16 -6 27 -3 35 12 97 -11 110 -39 7 -14 12 -33 12 -41 0 -8 5 -24
10 -35 15 -27 54 -7 44 23 -4 15 -2 19 7 15 8 -2 24 5 36 15 18 17 30 19 68
14 30 -5 48 -13 52 -24 4 -9 12 -21 19 -27 10 -8 11 -20 2 -55 -14 -55 -50
-139 -60 -140 -13 0 -9 19 11 58 20 41 38 124 23 107 -5 -5 -17 -32 -27 -60
-10 -27 -31 -85 -48 -127 -32 -85 -40 -90 -106 -67 -27 9 -35 8 -51 -6 -21
-19 -35 -14 -63 22 l-19 23 -29 -21 c-38 -27 -83 -23 -87 9 -4 26 4 24 -98 26
-77 2 -84 4 -120 35 -53 46 -68 76 -60 120 3 20 9 52 12 71 4 19 13 43 21 52
8 9 13 21 12 27 -2 5 -26 -14 -54 -42 -27 -28 -42 -45 -32 -37 27 20 33 3 8
-24 -12 -13 -36 -52 -54 -87 -28 -56 -35 -64 -61 -64 -18 0 -33 7 -40 20 -6
11 -17 24 -24 30 -10 8 -9 21 4 65 12 40 14 73 9 127 -4 40 -10 73 -15 73 -4
0 -29 -25 -56 -56 -45 -54 -48 -60 -50 -118 l-1 -61 -38 0 c-36 0 -40 3 -62
44 -1 2 -16 -7 -32 -19 -25 -17 -39 -20 -76 -14 -28 4 -45 11 -45 20 0 8 -10
14 -22 15 -13 0 -36 2 -51 3 -16 1 -31 -2 -33 -6 -14 -23 -164 14 -164 41 0
12 -3 12 -12 3 -16 -16 -97 -15 -128 3 -14 8 -35 14 -47 15 -16 0 -23 6 -23
20 0 11 -7 20 -15 20 -23 0 -19 16 42 163 64 155 51 146 175 125z m-339 -172
c62 -53 80 -76 58 -76 -12 0 -153 128 -170 154 -12 17 -10 17 16 -2 15 -11 58
-46 96 -76z m-726 -576 c11 0 13 -8 9 -32 -5 -25 -4 -28 3 -13 9 20 10 20 10
-1 1 -25 -7 -34 -25 -27 -9 3 -11 14 -8 32 4 21 1 30 -11 35 -14 5 -16 2 -12
-14 3 -11 1 -18 -4 -14 -5 3 -9 -2 -9 -10 0 -9 5 -16 12 -16 6 0 9 -2 6 -5 -3
-3 -12 -3 -21 1 -12 4 -15 13 -11 33 9 37 14 43 31 37 8 -3 21 -6 30 -6z
m2342 -144 c77 -47 109 -76 82 -76 -18 0 -350 204 -356 218 -5 15 142 -62 274
-142z m-2276 80 c-3 -15 -10 -23 -18 -20 -16 6 -7 44 10 44 8 0 10 -9 8 -24z
m47 3 c0 -4 -11 -21 -24 -36 l-24 -28 11 36 c6 20 17 36 24 36 7 0 13 -4 13
-8z m35 -22 c8 10 15 13 15 7 0 -5 -6 -18 -12 -27 -19 -25 -43 -6 -32 24 l8
24 4 -23 c3 -22 4 -23 17 -5z m63 7 c12 -4 22 -14 22 -23 0 -14 -2 -14 -10 -1
-8 13 -11 11 -16 -7 -4 -13 -10 -23 -14 -23 -5 0 -6 10 -3 23 4 21 4 22 -11 3
-16 -20 -21 -11 -10 18 7 18 9 18 42 10z m102 -26 c0 -11 5 -16 10 -13 17 11
40 -3 34 -19 -3 -9 -12 -12 -22 -8 -15 5 -15 4 -3 -11 8 -10 9 -17 3 -17 -6 0
-14 5 -17 10 -3 6 -20 10 -37 10 -23 0 -29 4 -24 16 3 9 9 26 12 39 7 28 44
23 44 -7z m72 -49 c-4 -18 -11 -29 -14 -24 -3 6 -1 26 5 45 12 44 21 24 9 -21z
m53 11 c9 -15 -4 -50 -20 -50 -20 0 -29 19 -16 34 6 7 8 16 4 19 -3 4 1 7 10
7 9 0 19 -5 22 -10z m135 -24 c0 -3 -4 -8 -10 -11 -5 -3 -10 -1 -10 4 0 6 5
11 10 11 6 0 10 -2 10 -4z m157 -54 c7 -7 18 -10 24 -6 9 5 10 -1 5 -20 -8
-31 10 -36 19 -5 9 27 16 20 8 -9 -5 -22 -43 -32 -43 -11 0 6 -7 9 -15 5 -33
-12 -43 3 -32 47 6 23 13 35 15 27 3 -8 11 -21 19 -28z m-77 13 c0 -8 -4 -15
-10 -15 -5 0 -10 7 -10 15 0 8 5 15 10 15 6 0 10 -7 10 -15z m190 -43 c0 -5
-3 -12 -7 -16 -5 -4 -8 -16 -8 -27 0 -10 -3 -19 -7 -19 -43 -1 -45 2 -28 44 9
24 50 38 50 18z m17 -22 c-6 -25 2 -26 18 -3 12 16 12 14 8 -10 -5 -27 -26
-36 -38 -17 -7 11 3 50 12 50 3 0 3 -9 0 -20z m67 4 c17 -7 22 -39 7 -48 -5
-4 -7 3 -4 14 3 11 0 20 -6 20 -6 0 -11 -7 -11 -15 0 -8 -4 -15 -9 -15 -4 0
-6 11 -3 25 5 28 4 27 26 19z m78 -37 c-2 -10 4 -15 17 -14 12 1 17 6 13 17
-5 13 -3 13 11 1 19 -15 20 -20 8 -39 -6 -9 -19 -11 -44 -7 -31 6 -35 10 -32
33 4 35 3 34 18 29 6 -2 11 -11 9 -20z m136 -34 c-5 -7 -8 -20 -4 -28 3 -8 1
-15 -5 -15 -7 0 -9 15 -5 38 3 20 5 39 6 42 0 3 4 -2 10 -10 5 -9 5 -19 -2
-27z m-28 10 c0 -28 -15 -44 -33 -37 -21 8 -22 23 -2 30 8 4 12 10 9 15 -3 5
2 9 10 9 9 0 16 -8 16 -17z m120 -21 c0 -32 -16 -53 -36 -45 -28 10 -13 73 17
73 14 0 19 -7 19 -28z m40 -7 c0 -22 -2 -24 -14 -13 -10 9 -11 17 -4 26 15 17
18 15 18 -13z m73 -2 c-27 -5 -29 -12 -6 -28 14 -10 20 -9 34 8 14 18 19 19
33 8 17 -14 14 -43 -6 -68 -12 -15 -38 -6 -38 13 0 12 -4 12 -20 2 -16 -10
-22 -10 -32 0 -11 11 -10 12 3 7 10 -4 20 -2 24 4 3 6 -1 14 -9 17 -9 3 -16
15 -16 25 0 14 7 19 28 18 23 -2 24 -2 5 -6z"/>
<path d="M2550 5725 c0 -9 5 -15 11 -13 6 2 11 8 11 13 0 5 -5 11 -11 13 -6 2
-11 -4 -11 -13z"/>
<path d="M2516 5721 c-4 -7 -5 -15 -2 -18 9 -9 19 4 14 18 -4 11 -6 11 -12 0z"/>
<path d="M1710 5700 c0 -5 5 -10 10 -10 6 0 10 5 10 10 0 6 -4 10 -10 10 -5 0
-10 -4 -10 -10z"/>
<path d="M2070 5705 c0 -8 7 -11 20 -8 11 3 20 8 20 12 0 4 -9 7 -20 8 -11 1
-20 -4 -20 -12z"/>
<path d="M2126 5711 c-4 -7 -5 -15 -2 -18 9 -9 19 4 14 18 -4 11 -6 11 -12 0z"/>
<path d="M1926 5711 c-4 -7 -5 -15 -2 -18 9 -9 19 4 14 18 -4 11 -6 11 -12 0z"/>
<path d="M3397 5524 c-8 -8 1 -24 14 -24 5 0 9 7 9 15 0 15 -12 20 -23 9z"/>
<path d="M2358 5473 c7 -3 16 -2 19 1 4 3 -2 6 -13 5 -11 0 -14 -3 -6 -6z"/>
<path d="M3318 5523 c7 -3 16 -2 19 1 4 3 -2 6 -13 5 -11 0 -14 -3 -6 -6z"/>
<path d="M2018 5513 c7 -3 16 -2 19 1 4 3 -2 6 -13 5 -11 0 -14 -3 -6 -6z"/>
<path d="M1860 5374 c0 -8 5 -12 10 -9 6 3 10 10 10 16 0 5 -4 9 -10 9 -5 0
-10 -7 -10 -16z"/>
<path d="M2270 5375 c0 -8 4 -15 9 -15 5 0 11 7 15 15 3 9 0 15 -9 15 -8 0
-15 -7 -15 -15z"/>
<path d="M2580 5375 c0 -8 5 -15 10 -15 6 0 10 7 10 15 0 8 -4 15 -10 15 -5 0
-10 -7 -10 -15z"/>
<path d="M1810 5060 c0 -5 5 -10 10 -10 6 0 10 5 10 10 0 6 -4 10 -10 10 -5 0
-10 -4 -10 -10z"/>
<path d="M2217 4903 c-10 -9 -9 -23 2 -23 5 0 11 7 15 15 5 15 -5 20 -17 8z"/>
<path d="M1800 4704 c0 -8 5 -12 10 -9 6 3 10 10 10 16 0 5 -4 9 -10 9 -5 0
-10 -7 -10 -16z"/>
<path d="M1270 4375 c0 -8 5 -15 10 -15 6 0 10 7 10 15 0 8 -4 15 -10 15 -5 0
-10 -7 -10 -15z"/>
<path d="M1330 4370 c0 -5 5 -10 10 -10 6 0 10 5 10 10 0 6 -4 10 -10 10 -5 0
-10 -4 -10 -10z"/>
<path d="M1510 4359 c0 -5 5 -7 10 -4 6 3 10 8 10 11 0 2 -4 4 -10 4 -5 0 -10
-5 -10 -11z"/>
<path d="M1256 4021 c-4 -7 -5 -15 -2 -18 9 -9 19 4 14 18 -4 11 -6 11 -12 0z"/>
<path d="M1310 4004 c0 -8 5 -12 10 -9 6 3 10 10 10 16 0 5 -4 9 -10 9 -5 0
-10 -7 -10 -16z"/>
<path d="M1606 3991 c-4 -7 -5 -15 -2 -18 9 -9 19 4 14 18 -4 11 -6 11 -12 0z"/>
<path d="M1810 3964 c0 -8 5 -12 10 -9 6 3 10 10 10 16 0 5 -4 9 -10 9 -5 0
-10 -7 -10 -16z"/>
<path d="M1456 3621 c-4 -7 -5 -15 -2 -18 9 -9 19 4 14 18 -4 11 -6 11 -12 0z"/>
<path d="M1067 3273 c-4 -3 -7 -11 -7 -17 0 -6 5 -5 12 2 6 6 9 14 7 17 -3 3
-9 2 -12 -2z"/>
<path d="M1170 3244 c0 -8 5 -12 10 -9 6 3 10 10 10 16 0 5 -4 9 -10 9 -5 0
-10 -7 -10 -16z"/>
<path d="M1430 3214 c0 -8 5 -12 10 -9 6 3 10 10 10 16 0 5 -4 9 -10 9 -5 0
-10 -7 -10 -16z"/>
<path d="M850 2920 c0 -5 5 -10 10 -10 6 0 10 5 10 10 0 6 -4 10 -10 10 -5 0
-10 -4 -10 -10z"/>
<path d="M1340 2815 c0 -8 5 -15 10 -15 6 0 10 7 10 15 0 8 -4 15 -10 15 -5 0
-10 -7 -10 -15z"/>
<path d="M1230 1841 c0 -5 12 -12 28 -16 15 -3 35 -14 44 -22 16 -14 18 -13
28 11 5 15 10 28 10 29 0 7 -110 5 -110 -2z"/>
<path d="M1845 1710 c-27 -27 -45 -50 -39 -50 12 0 31 19 70 68 37 46 26 40
-31 -18z"/>
<path d="M1181 1609 c17 -11 69 -12 69 -1 0 4 -19 8 -42 9 -28 1 -37 -2 -27
-8z"/>
<path d="M1354 1570 c42 -21 81 -26 90 -11 4 5 -17 14 -44 20 -75 16 -90 13
-46 -9z"/>
<path d="M2049 1563 c-13 -16 -12 -17 4 -4 9 7 17 15 17 17 0 8 -8 3 -21 -13z"/>
<path d="M1645 1540 c-3 -6 1 -7 9 -4 18 7 21 14 7 14 -6 0 -13 -4 -16 -10z"/>
<path d="M2010 1490 c-7 -16 -19 -30 -27 -30 -8 0 -11 -4 -8 -10 13 -21 35 -8
44 27 13 46 8 54 -9 13z"/>
<path d="M500 1090 c0 -5 5 -10 10 -10 6 0 10 5 10 10 0 6 -4 10 -10 10 -5 0
-10 -4 -10 -10z"/>
<path d="M490 1060 c0 -5 5 -10 10 -10 6 0 10 5 10 10 0 6 -4 10 -10 10 -5 0
-10 -4 -10 -10z"/>
<path d="M926 961 c-4 -7 -5 -15 -2 -18 9 -9 19 4 14 18 -4 11 -6 11 -12 0z"/>
<path d="M1417 853 c-13 -12 -7 -43 8 -43 9 0 15 9 15 25 0 24 -10 32 -23 18z"/>
<path d="M1597 803 c-13 -12 -7 -43 8 -43 9 0 15 9 15 25 0 24 -10 32 -23 18z"/>
</g>
</svg>
