<svg xmlns="http://www.w3.org/2000/svg" xmlns:xlink="http://www.w3.org/1999/xlink" width="500" zoomAndPan="magnify" viewBox="0 0 375 374.999991" height="500" preserveAspectRatio="xMidYMid meet" version="1.0"><defs><g/><clipPath id="d3c751188c"><path d="M 174.425781 148.425781 L 361.984375 148.425781 L 361.984375 207.339844 L 174.425781 207.339844 Z M 174.425781 148.425781 " clip-rule="nonzero"/></clipPath><clipPath id="6beb7c8315"><path d="M 215.671875 148.425781 L 355.652344 148.425781 C 357.804688 148.425781 359.789062 149.582031 360.851562 151.449219 C 361.917969 153.316406 361.898438 155.613281 360.804688 157.460938 L 336.617188 198.304688 C 333.300781 203.90625 327.273438 207.339844 320.765625 207.339844 L 180.785156 207.339844 C 178.632812 207.339844 176.648438 206.1875 175.585938 204.320312 C 174.519531 202.453125 174.539062 200.15625 175.632812 198.304688 L 199.820312 157.460938 C 203.136719 151.863281 209.164062 148.425781 215.671875 148.425781 Z M 215.671875 148.425781 " clip-rule="nonzero"/></clipPath></defs><g clip-path="url(#d3c751188c)"><g clip-path="url(#6beb7c8315)"><path fill="#000000" d="M 170.285156 148.425781 L 366.125 148.425781 L 366.125 207.339844 L 170.285156 207.339844 Z M 170.285156 148.425781 " fill-opacity="1" fill-rule="nonzero"/></g></g><g fill="#000000" fill-opacity="1"><g transform="translate(8.84639, 197.429083)"><g><path d="M 30.65625 -27.78125 L 12.296875 -27.78125 L 12.296875 -20.890625 L 28.875 -20.890625 L 28.875 -13.9375 L 12.296875 -13.9375 L 12.296875 -6.953125 L 31.203125 -6.953125 L 31.203125 0 L 3.46875 0 L 3.46875 -34.734375 L 30.65625 -34.734375 Z M 30.65625 -27.78125 "/></g></g></g><g fill="#000000" fill-opacity="1"><g transform="translate(39.45737, 197.429083)"><g><path d="M 12.25 0 L 3.671875 0 L 3.671875 -36.8125 L 12.25 -36.8125 Z M 12.25 0 "/></g></g></g><g fill="#000000" fill-opacity="1"><g transform="translate(52.55494, 197.429083)"><g><path d="M 4.484375 -37.671875 C 5.328125 -38.515625 6.410156 -38.9375 7.734375 -38.9375 C 9.054688 -38.9375 10.140625 -38.515625 10.984375 -37.671875 C 11.828125 -36.828125 12.25 -35.742188 12.25 -34.421875 C 12.25 -33.097656 11.828125 -32.003906 10.984375 -31.140625 C 10.140625 -30.285156 9.054688 -29.859375 7.734375 -29.859375 C 6.410156 -29.859375 5.328125 -30.285156 4.484375 -31.140625 C 3.640625 -32.003906 3.21875 -33.097656 3.21875 -34.421875 C 3.21875 -35.742188 3.640625 -36.828125 4.484375 -37.671875 Z M 11.953125 0 L 3.421875 0 L 3.421875 -26.734375 L 11.953125 -26.734375 Z M 11.953125 0 "/></g></g></g><g fill="#000000" fill-opacity="1"><g transform="translate(65.15638, 197.429083)"><g><path d="M 15.078125 -19.046875 L 19.84375 -26.734375 L 29.21875 -26.734375 L 20.734375 -13.734375 L 29.8125 0 L 19.9375 0 L 15.078125 -8.390625 L 9.625 0 L 0.203125 0 L 9.328125 -13.6875 L 0.796875 -26.734375 L 10.609375 -26.734375 Z M 15.078125 -19.046875 "/></g></g></g><g fill="#000000" fill-opacity="1"><g transform="translate(92.393668, 197.429083)"><g><path d="M 29.125 -26.734375 L 17.5625 2.78125 C 15.570312 7.601562 12.132812 10.015625 7.25 10.015625 C 4.40625 10.015625 1.804688 9.109375 -0.546875 7.296875 L 3.03125 1.4375 C 4.21875 2.394531 5.390625 2.875 6.546875 2.875 C 8.066406 2.875 9.175781 2.164062 9.875 0.75 L 10.515625 -0.59375 L -0.59375 -26.734375 L 8.234375 -26.734375 L 14.78125 -8.984375 L 20.59375 -26.734375 Z M 29.125 -26.734375 "/></g></g></g><g fill="#000000" fill-opacity="1"><g transform="translate(118.341019, 197.429083)"><g><path d="M 29.46875 -26.734375 L 29.46875 0 L 20.890625 0 L 20.890625 -4.421875 C 19.066406 -1.242188 16.171875 0.34375 12.203125 0.34375 C 9.296875 0.34375 6.972656 -0.578125 5.234375 -2.421875 C 3.492188 -4.273438 2.625 -6.757812 2.625 -9.875 L 2.625 -26.734375 L 11.21875 -26.734375 L 11.21875 -12.296875 C 11.21875 -10.710938 11.617188 -9.460938 12.421875 -8.546875 C 13.234375 -7.640625 14.316406 -7.1875 15.671875 -7.1875 C 17.296875 -7.226562 18.570312 -7.832031 19.5 -9 C 20.425781 -10.175781 20.890625 -11.691406 20.890625 -13.546875 L 20.890625 -26.734375 Z M 29.46875 -26.734375 "/></g></g></g><g fill="#000000" fill-opacity="1"><g transform="translate(148.406252, 197.429083)"><g><path d="M 39.140625 -27.140625 C 42.085938 -27.140625 44.425781 -26.203125 46.15625 -24.328125 C 47.894531 -22.460938 48.765625 -19.976562 48.765625 -16.875 L 48.765625 0 L 40.234375 0 L 40.234375 -14.484375 C 40.234375 -16.078125 39.816406 -17.328125 38.984375 -18.234375 C 38.160156 -19.140625 37.039062 -19.59375 35.625 -19.59375 C 34.03125 -19.5625 32.757812 -18.957031 31.8125 -17.78125 C 30.875 -16.613281 30.40625 -15.101562 30.40625 -13.25 L 30.40625 0 L 21.828125 0 L 21.828125 -14.484375 C 21.828125 -16.078125 21.421875 -17.328125 20.609375 -18.234375 C 19.796875 -19.140625 18.679688 -19.59375 17.265625 -19.59375 C 15.640625 -19.5625 14.347656 -18.945312 13.390625 -17.75 C 12.429688 -16.5625 11.953125 -15.0625 11.953125 -13.25 L 11.953125 0 L 3.421875 0 L 3.421875 -26.734375 L 11.953125 -26.734375 L 11.953125 -22.328125 C 13.773438 -25.460938 16.71875 -27.066406 20.78125 -27.140625 C 22.9375 -27.140625 24.796875 -26.597656 26.359375 -25.515625 C 27.929688 -24.441406 29.050781 -22.960938 29.71875 -21.078125 C 31.46875 -25.046875 34.609375 -27.066406 39.140625 -27.140625 Z M 39.140625 -27.140625 "/></g></g></g><g fill="#ffffff" fill-opacity="1"><g transform="translate(208.354678, 197.425113)"><g><path d="M 20.234375 -27.03125 C 24.003906 -27.03125 27.039062 -25.765625 29.34375 -23.234375 C 31.644531 -20.710938 32.796875 -17.382812 32.796875 -13.25 C 32.796875 -9.175781 31.671875 -5.898438 29.421875 -3.421875 C 27.171875 -0.941406 24.175781 0.296875 20.4375 0.296875 C 16.9375 0.296875 14.207031 -0.992188 12.25 -3.578125 L 12.25 0 L 3.671875 0 L 3.671875 -36.8125 L 12.25 -36.8125 L 12.25 -23.21875 C 14.238281 -25.757812 16.898438 -27.03125 20.234375 -27.03125 Z M 18.15625 -6.5 C 19.945312 -6.5 21.394531 -7.148438 22.5 -8.453125 C 23.601562 -9.765625 24.15625 -11.441406 24.15625 -13.484375 C 24.15625 -15.535156 23.601562 -17.207031 22.5 -18.5 C 21.394531 -19.789062 19.945312 -20.4375 18.15625 -20.4375 C 16.4375 -20.4375 15.019531 -19.789062 13.90625 -18.5 C 12.800781 -17.207031 12.25 -15.539062 12.25 -13.5 C 12.25 -11.414062 12.796875 -9.726562 13.890625 -8.4375 C 14.984375 -7.144531 16.40625 -6.5 18.15625 -6.5 Z M 18.15625 -6.5 "/></g></g></g><g fill="#ffffff" fill-opacity="1"><g transform="translate(239.511402, 197.425113)"><g><path d="M 15.125 -27.03125 C 19.757812 -27.03125 23.242188 -25.609375 25.578125 -22.765625 C 27.910156 -19.921875 28.925781 -16.019531 28.625 -11.0625 L 9.828125 -11.0625 C 10.253906 -9.476562 11.007812 -8.253906 12.09375 -7.390625 C 13.1875 -6.535156 14.53125 -6.109375 16.125 -6.109375 C 18.570312 -6.109375 20.703125 -7.015625 22.515625 -8.828125 L 27.03125 -4.421875 C 24.15625 -1.273438 20.269531 0.296875 15.375 0.296875 C 11.039062 0.296875 7.59375 -0.941406 5.03125 -3.421875 C 2.46875 -5.898438 1.1875 -9.191406 1.1875 -13.296875 C 1.1875 -17.429688 2.46875 -20.753906 5.03125 -23.265625 C 7.59375 -25.773438 10.957031 -27.03125 15.125 -27.03125 Z M 9.671875 -15.671875 L 20.390625 -15.671875 C 20.390625 -17.296875 19.914062 -18.601562 18.96875 -19.59375 C 18.03125 -20.582031 16.785156 -21.078125 15.234375 -21.078125 C 13.773438 -21.078125 12.550781 -20.585938 11.5625 -19.609375 C 10.570312 -18.640625 9.941406 -17.328125 9.671875 -15.671875 Z M 9.671875 -15.671875 "/></g></g></g><g fill="#ffffff" fill-opacity="1"><g transform="translate(266.550246, 197.425113)"><g><path d="M 19 -7.390625 L 20.6875 -1.4375 C 18.601562 -0.21875 16.222656 0.390625 13.546875 0.390625 C 10.898438 0.390625 8.753906 -0.34375 7.109375 -1.8125 C 5.472656 -3.28125 4.65625 -5.375 4.65625 -8.09375 L 4.65625 -19.890625 L 0.9375 -19.890625 L 0.9375 -25.5 L 4.65625 -25.5 L 4.65625 -32.9375 L 13.203125 -32.9375 L 13.203125 -25.546875 L 20.1875 -25.546875 L 20.1875 -19.890625 L 13.203125 -19.890625 L 13.203125 -9.421875 C 13.203125 -8.398438 13.40625 -7.648438 13.8125 -7.171875 C 14.226562 -6.691406 14.847656 -6.46875 15.671875 -6.5 C 16.472656 -6.5 17.582031 -6.796875 19 -7.390625 Z M 19 -7.390625 "/></g></g></g><g fill="#ffffff" fill-opacity="1"><g transform="translate(285.303697, 197.425113)"><g><path d="M 15.421875 -27.140625 C 19.097656 -27.140625 21.953125 -26.285156 23.984375 -24.578125 C 26.015625 -22.878906 27.050781 -20.507812 27.09375 -17.46875 L 27.09375 0 L 18.703125 0 L 18.703125 -3.078125 C 16.953125 -0.765625 14.222656 0.390625 10.515625 0.390625 C 7.703125 0.390625 5.46875 -0.382812 3.8125 -1.9375 C 2.164062 -3.488281 1.34375 -5.503906 1.34375 -7.984375 C 1.34375 -10.535156 2.222656 -12.515625 3.984375 -13.921875 C 5.753906 -15.328125 8.296875 -16.046875 11.609375 -16.078125 L 18.65625 -16.078125 L 18.65625 -16.46875 C 18.65625 -17.789062 18.21875 -18.820312 17.34375 -19.5625 C 16.46875 -20.3125 15.164062 -20.6875 13.4375 -20.6875 C 11.03125 -20.6875 8.367188 -19.941406 5.453125 -18.453125 L 3.03125 -24.109375 C 7.363281 -26.128906 11.492188 -27.140625 15.421875 -27.140625 Z M 13.140625 -5.40625 C 14.503906 -5.40625 15.695312 -5.742188 16.71875 -6.421875 C 17.738281 -7.097656 18.382812 -7.984375 18.65625 -9.078125 L 18.65625 -11.453125 L 13.25 -11.453125 C 10.664062 -11.453125 9.375 -10.492188 9.375 -8.578125 C 9.375 -7.585938 9.703125 -6.8125 10.359375 -6.25 C 11.023438 -5.6875 11.953125 -5.40625 13.140625 -5.40625 Z M 13.140625 -5.40625 "/></g></g></g></svg>