<svg xmlns="http://www.w3.org/2000/svg" xmlns:xlink="http://www.w3.org/1999/xlink" width="500" zoomAndPan="magnify" viewBox="0 0 375 374.999991" height="500" preserveAspectRatio="xMidYMid meet" version="1.0"><defs><g/><clipPath id="0edce01791"><path d="M 196.074219 165.609375 L 333 165.609375 L 333 209.382812 L 196.074219 209.382812 Z M 196.074219 165.609375 " clip-rule="nonzero"/></clipPath><clipPath id="954d4c93ef"><path d="M 228.390625 165.609375 L 327 165.609375 C 329.148438 165.609375 331.136719 166.765625 332.199219 168.632812 C 333.265625 170.5 333.246094 172.796875 332.148438 174.644531 L 316.929688 200.347656 C 313.613281 205.949219 307.585938 209.382812 301.078125 209.382812 L 202.46875 209.382812 C 200.320312 209.382812 198.335938 208.230469 197.269531 206.363281 C 196.207031 204.492188 196.226562 202.199219 197.320312 200.347656 L 212.542969 174.644531 C 215.859375 169.046875 221.882812 165.609375 228.390625 165.609375 Z M 228.390625 165.609375 " clip-rule="nonzero"/></clipPath></defs><g clip-path="url(#0edce01791)"><g clip-path="url(#954d4c93ef)"><path fill="#000000" d="M 191.96875 165.609375 L 337.480469 165.609375 L 337.480469 209.382812 L 191.96875 209.382812 Z M 191.96875 165.609375 " fill-opacity="1" fill-rule="nonzero"/></g></g><g fill="#000000" fill-opacity="1"><g transform="translate(72.023781, 202.018808)"><g><path d="M 22.78125 -20.640625 L 9.140625 -20.640625 L 9.140625 -15.515625 L 21.453125 -15.515625 L 21.453125 -10.359375 L 9.140625 -10.359375 L 9.140625 -5.15625 L 23.1875 -5.15625 L 23.1875 0 L 2.578125 0 L 2.578125 -25.796875 L 22.78125 -25.796875 Z M 22.78125 -20.640625 "/></g></g></g><g fill="#000000" fill-opacity="1"><g transform="translate(94.767479, 202.018808)"><g><path d="M 9.109375 0 L 2.734375 0 L 2.734375 -27.34375 L 9.109375 -27.34375 Z M 9.109375 0 "/></g></g></g><g fill="#000000" fill-opacity="1"><g transform="translate(104.498861, 202.018808)"><g><path d="M 3.328125 -28 C 3.960938 -28.625 4.769531 -28.9375 5.75 -28.9375 C 6.726562 -28.9375 7.53125 -28.625 8.15625 -28 C 8.789062 -27.375 9.109375 -26.566406 9.109375 -25.578125 C 9.109375 -24.597656 8.789062 -23.785156 8.15625 -23.140625 C 7.53125 -22.503906 6.726562 -22.1875 5.75 -22.1875 C 4.769531 -22.1875 3.960938 -22.503906 3.328125 -23.140625 C 2.703125 -23.785156 2.390625 -24.597656 2.390625 -25.578125 C 2.390625 -26.566406 2.703125 -27.375 3.328125 -28 Z M 8.890625 0 L 2.546875 0 L 2.546875 -19.859375 L 8.890625 -19.859375 Z M 8.890625 0 "/></g></g></g><g fill="#000000" fill-opacity="1"><g transform="translate(113.861624, 202.018808)"><g><path d="M 11.203125 -14.15625 L 14.75 -19.859375 L 21.703125 -19.859375 L 15.40625 -10.203125 L 22.15625 0 L 14.8125 0 L 11.203125 -6.234375 L 7.15625 0 L 0.140625 0 L 6.921875 -10.171875 L 0.59375 -19.859375 L 7.890625 -19.859375 Z M 11.203125 -14.15625 "/></g></g></g><g fill="#000000" fill-opacity="1"><g transform="translate(134.098696, 202.018808)"><g><path d="M 21.640625 -19.859375 L 13.046875 2.0625 C 11.578125 5.65625 9.019531 7.453125 5.375 7.453125 C 3.269531 7.453125 1.34375 6.773438 -0.40625 5.421875 L 2.25 1.0625 C 3.132812 1.78125 4.003906 2.140625 4.859375 2.140625 C 5.992188 2.140625 6.816406 1.609375 7.328125 0.546875 L 7.8125 -0.4375 L -0.4375 -19.859375 L 6.125 -19.859375 L 10.984375 -6.671875 L 15.296875 -19.859375 Z M 21.640625 -19.859375 "/></g></g></g><g fill="#000000" fill-opacity="1"><g transform="translate(153.377357, 202.018808)"><g><path d="M 21.890625 -19.859375 L 21.890625 0 L 15.515625 0 L 15.515625 -3.28125 C 14.160156 -0.914062 12.007812 0.265625 9.0625 0.265625 C 6.90625 0.265625 5.179688 -0.421875 3.890625 -1.796875 C 2.597656 -3.179688 1.953125 -5.023438 1.953125 -7.328125 L 1.953125 -19.859375 L 8.328125 -19.859375 L 8.328125 -9.140625 C 8.328125 -7.960938 8.628906 -7.035156 9.234375 -6.359375 C 9.835938 -5.679688 10.640625 -5.34375 11.640625 -5.34375 C 12.847656 -5.363281 13.796875 -5.8125 14.484375 -6.6875 C 15.171875 -7.5625 15.515625 -8.6875 15.515625 -10.0625 L 15.515625 -19.859375 Z M 21.890625 -19.859375 "/></g></g></g><g fill="#000000" fill-opacity="1"><g transform="translate(175.715569, 202.018808)"><g><path d="M 29.078125 -20.15625 C 31.265625 -20.15625 33.003906 -19.460938 34.296875 -18.078125 C 35.585938 -16.691406 36.234375 -14.84375 36.234375 -12.53125 L 36.234375 0 L 29.890625 0 L 29.890625 -10.765625 C 29.890625 -11.941406 29.582031 -12.867188 28.96875 -13.546875 C 28.351562 -14.222656 27.519531 -14.5625 26.46875 -14.5625 C 25.289062 -14.53125 24.347656 -14.078125 23.640625 -13.203125 C 22.941406 -12.335938 22.59375 -11.21875 22.59375 -9.84375 L 22.59375 0 L 16.21875 0 L 16.21875 -10.765625 C 16.21875 -11.941406 15.914062 -12.867188 15.3125 -13.546875 C 14.707031 -14.222656 13.878906 -14.5625 12.828125 -14.5625 C 11.617188 -14.53125 10.660156 -14.070312 9.953125 -13.1875 C 9.242188 -12.3125 8.890625 -11.195312 8.890625 -9.84375 L 8.890625 0 L 2.546875 0 L 2.546875 -19.859375 L 8.890625 -19.859375 L 8.890625 -16.59375 C 10.234375 -18.925781 12.414062 -20.113281 15.4375 -20.15625 C 17.039062 -20.15625 18.425781 -19.753906 19.59375 -18.953125 C 20.757812 -18.160156 21.585938 -17.066406 22.078125 -15.671875 C 23.378906 -18.617188 25.710938 -20.113281 29.078125 -20.15625 Z M 29.078125 -20.15625 "/></g></g></g><g fill="#ffffff" fill-opacity="1"><g transform="translate(220.256738, 202.015865)"><g><path d="M 15.03125 -20.09375 C 17.832031 -20.09375 20.085938 -19.148438 21.796875 -17.265625 C 23.503906 -15.390625 24.359375 -12.914062 24.359375 -9.84375 C 24.359375 -6.820312 23.519531 -4.390625 21.84375 -2.546875 C 20.175781 -0.703125 17.957031 0.21875 15.1875 0.21875 C 12.582031 0.21875 10.554688 -0.738281 9.109375 -2.65625 L 9.109375 0 L 2.734375 0 L 2.734375 -27.34375 L 9.109375 -27.34375 L 9.109375 -17.25 C 10.578125 -19.144531 12.550781 -20.09375 15.03125 -20.09375 Z M 13.484375 -4.828125 C 14.816406 -4.828125 15.894531 -5.3125 16.71875 -6.28125 C 17.539062 -7.25 17.953125 -8.492188 17.953125 -10.015625 C 17.953125 -11.546875 17.539062 -12.789062 16.71875 -13.75 C 15.894531 -14.707031 14.816406 -15.1875 13.484375 -15.1875 C 12.210938 -15.1875 11.164062 -14.707031 10.34375 -13.75 C 9.519531 -12.789062 9.109375 -11.550781 9.109375 -10.03125 C 9.109375 -8.476562 9.507812 -7.222656 10.3125 -6.265625 C 11.125 -5.304688 12.179688 -4.828125 13.484375 -4.828125 Z M 13.484375 -4.828125 "/></g></g></g><g fill="#ffffff" fill-opacity="1"><g transform="translate(243.405919, 202.015865)"><g><path d="M 11.234375 -20.09375 C 14.679688 -20.09375 17.269531 -19.035156 19 -16.921875 C 20.726562 -14.804688 21.484375 -11.90625 21.265625 -8.21875 L 7.296875 -8.21875 C 7.617188 -7.039062 8.179688 -6.128906 8.984375 -5.484375 C 9.796875 -4.847656 10.796875 -4.53125 11.984375 -4.53125 C 13.796875 -4.53125 15.378906 -5.207031 16.734375 -6.5625 L 20.09375 -3.28125 C 17.945312 -0.945312 15.054688 0.21875 11.421875 0.21875 C 8.203125 0.21875 5.640625 -0.703125 3.734375 -2.546875 C 1.835938 -4.390625 0.890625 -6.832031 0.890625 -9.875 C 0.890625 -12.945312 1.835938 -15.414062 3.734375 -17.28125 C 5.640625 -19.15625 8.140625 -20.09375 11.234375 -20.09375 Z M 7.1875 -11.640625 L 15.15625 -11.640625 C 15.15625 -12.847656 14.800781 -13.820312 14.09375 -14.5625 C 13.394531 -15.300781 12.46875 -15.671875 11.3125 -15.671875 C 10.226562 -15.671875 9.316406 -15.304688 8.578125 -14.578125 C 7.847656 -13.847656 7.382812 -12.867188 7.1875 -11.640625 Z M 7.1875 -11.640625 "/></g></g></g><g fill="#ffffff" fill-opacity="1"><g transform="translate(263.495549, 202.015865)"><g><path d="M 14.109375 -5.484375 L 15.375 -1.0625 C 13.820312 -0.15625 12.050781 0.296875 10.0625 0.296875 C 8.09375 0.296875 6.5 -0.25 5.28125 -1.34375 C 4.070312 -2.4375 3.46875 -3.992188 3.46875 -6.015625 L 3.46875 -14.78125 L 0.703125 -14.78125 L 0.703125 -18.953125 L 3.46875 -18.953125 L 3.46875 -24.46875 L 9.796875 -24.46875 L 9.796875 -18.984375 L 15 -18.984375 L 15 -14.78125 L 9.796875 -14.78125 L 9.796875 -7 C 9.796875 -6.238281 9.945312 -5.679688 10.25 -5.328125 C 10.5625 -4.972656 11.023438 -4.804688 11.640625 -4.828125 C 12.234375 -4.828125 13.054688 -5.046875 14.109375 -5.484375 Z M 14.109375 -5.484375 "/></g></g></g><g fill="#ffffff" fill-opacity="1"><g transform="translate(277.429203, 202.015865)"><g><path d="M 11.46875 -20.15625 C 14.1875 -20.15625 16.300781 -19.519531 17.8125 -18.25 C 19.332031 -16.988281 20.101562 -15.226562 20.125 -12.96875 L 20.125 0 L 13.890625 0 L 13.890625 -2.28125 C 12.585938 -0.5625 10.5625 0.296875 7.8125 0.296875 C 5.726562 0.296875 4.070312 -0.28125 2.84375 -1.4375 C 1.613281 -2.59375 1 -4.09375 1 -5.9375 C 1 -7.820312 1.65625 -9.285156 2.96875 -10.328125 C 4.28125 -11.378906 6.164062 -11.914062 8.625 -11.9375 L 13.859375 -11.9375 L 13.859375 -12.234375 C 13.859375 -13.222656 13.53125 -13.992188 12.875 -14.546875 C 12.226562 -15.097656 11.265625 -15.375 9.984375 -15.375 C 8.191406 -15.375 6.210938 -14.820312 4.046875 -13.71875 L 2.25 -17.90625 C 5.46875 -19.40625 8.539062 -20.15625 11.46875 -20.15625 Z M 9.765625 -4.015625 C 10.773438 -4.015625 11.660156 -4.265625 12.421875 -4.765625 C 13.179688 -5.273438 13.660156 -5.9375 13.859375 -6.75 L 13.859375 -8.515625 L 9.84375 -8.515625 C 7.925781 -8.515625 6.96875 -7.800781 6.96875 -6.375 C 6.96875 -5.632812 7.210938 -5.054688 7.703125 -4.640625 C 8.191406 -4.222656 8.878906 -4.015625 9.765625 -4.015625 Z M 9.765625 -4.015625 "/></g></g></g></svg>